<?xml version="1.0" encoding="UTF-8" standalone="no"?>
<!-- Created with Inkscape (http://www.inkscape.org/) -->

<svg
   xmlns:dc="http://purl.org/dc/elements/1.1/"
   xmlns:cc="http://creativecommons.org/ns#"
   xmlns:rdf="http://www.w3.org/1999/02/22-rdf-syntax-ns#"
   xmlns:svg="http://www.w3.org/2000/svg"
   xmlns="http://www.w3.org/2000/svg"
   xmlns:xlink="http://www.w3.org/1999/xlink"
   xmlns:sodipodi="http://sodipodi.sourceforge.net/DTD/sodipodi-0.dtd"
   xmlns:inkscape="http://www.inkscape.org/namespaces/inkscape"
   width="100"
   height="100"
   viewBox="0 0 26.458333 26.458334"
   version="1.1"
   id="svg8"
   inkscape:version="0.92.3 (2405546, 2018-03-11)"
   sodipodi:docname="icon.svg"
   inkscape:export-filename="C:\Users\Bastian Bechtold\Desktop\MissionGenerator\Website\icon.png"
   inkscape:export-xdpi="192"
   inkscape:export-ydpi="192">
  <defs
     id="defs2">
    <linearGradient
       inkscape:collect="always"
       id="linearGradient4604">
      <stop
         style="stop-color:#3a3a3a;stop-opacity:1"
         offset="0"
         id="stop4600" />
      <stop
         id="stop4608"
         offset="0.21278968"
         style="stop-color:#d2d2d2;stop-opacity:1" />
      <stop
         style="stop-color:#666666;stop-opacity:1"
         offset="0.42743585"
         id="stop4610" />
      <stop
         id="stop4614"
         offset="0.58435684"
         style="stop-color:#6b6b6b;stop-opacity:1" />
      <stop
         id="stop4612"
         offset="0.81459838"
         style="stop-color:#dcdcdc;stop-opacity:1" />
      <stop
         style="stop-color:#626262;stop-opacity:1"
         offset="1"
         id="stop4602" />
    </linearGradient>
    <linearGradient
       inkscape:collect="always"
       id="linearGradient4596">
      <stop
         style="stop-color:#ffffff;stop-opacity:1"
         offset="0"
         id="stop4592" />
      <stop
         style="stop-color:#ce0000;stop-opacity:1"
         offset="1"
         id="stop4594" />
    </linearGradient>
    <radialGradient
       inkscape:collect="always"
       xlink:href="#linearGradient4596"
       id="radialGradient4598"
       cx="8.3187637"
       cy="277.6026"
       fx="8.3187637"
       fy="277.6026"
       r="1.403165"
       gradientTransform="matrix(1.1949434,0,0,1.1807178,-6.148496,-51.017385)"
       gradientUnits="userSpaceOnUse" />
    <linearGradient
       inkscape:collect="always"
       xlink:href="#linearGradient4604"
       id="linearGradient4606"
       x1="8.071517"
       y1="280.76337"
       x2="8.3340893"
       y2="280.71472"
       gradientUnits="userSpaceOnUse"
       gradientTransform="matrix(1.1949434,0,0,1.1949434,-6.1626104,-54.984863)" />
    <radialGradient
       inkscape:collect="always"
       xlink:href="#linearGradient4596"
       id="radialGradient4598-0"
       cx="8.3187637"
       cy="277.6026"
       fx="8.3187637"
       fy="277.6026"
       r="1.403165"
       gradientTransform="matrix(1.1949434,0,0,1.1807178,9.1973256,-45.070719)"
       gradientUnits="userSpaceOnUse" />
    <linearGradient
       gradientTransform="matrix(1.1949434,0,0,1.1949434,9.1832112,-49.038206)"
       inkscape:collect="always"
       xlink:href="#linearGradient4604"
       id="linearGradient4606-5"
       x1="8.071517"
       y1="280.76337"
       x2="8.3340893"
       y2="280.71472"
       gradientUnits="userSpaceOnUse" />
  </defs>
  <sodipodi:namedview
     id="base"
     pagecolor="#ffffff"
     bordercolor="#666666"
     borderopacity="1.0"
     inkscape:pageopacity="0.0"
     inkscape:pageshadow="2"
     inkscape:zoom="4"
     inkscape:cx="15.572024"
     inkscape:cy="20.814076"
     inkscape:document-units="mm"
     inkscape:current-layer="layer1"
     showgrid="false"
     units="px"
     inkscape:window-width="2560"
     inkscape:window-height="1417"
     inkscape:window-x="-8"
     inkscape:window-y="-8"
     inkscape:window-maximized="1" />
  <metadata
     id="metadata5">
    <rdf:RDF>
      <cc:Work
         rdf:about="">
        <dc:format>image/svg+xml</dc:format>
        <dc:type
           rdf:resource="http://purl.org/dc/dcmitype/StillImage" />
        <dc:title></dc:title>
      </cc:Work>
    </rdf:RDF>
  </metadata>
  <g
     inkscape:label="Layer 1"
     inkscape:groupmode="layer"
     id="layer1"
     transform="translate(0,-270.54165)">
    <path
       style="fill:#e6e7ec;fill-opacity:1;stroke:#000000;stroke-width:0.31616211px;stroke-linecap:butt;stroke-linejoin:miter;stroke-opacity:1"
       d="m 3.3147521,270.94229 -1.716624,25.66951 21.7572139,-1.71662 1.437174,-17.16623 z"
       id="path3713"
       inkscape:connector-curvature="0"
       sodipodi:nodetypes="ccccc" />
    <path
       style="fill:#c4d9ec;fill-opacity:1;stroke:#c3d8eb;stroke-width:0.31665999;stroke-linecap:round;stroke-linejoin:miter;stroke-miterlimit:4;stroke-dasharray:none;stroke-opacity:1"
       d="m 24.701849,277.78076 c 0.02795,0.0373 -10.657723,-3.32584 -10.629774,-3.28857 0,0.0101 -0.0067,0.15052 -0.0025,0.15888 0.0058,0.012 0.02206,0.0161 0.02795,0.028 0.0041,0.008 -0.0066,0.0214 0,0.0279 0.05782,0.0578 -0.0022,-0.0883 0.05589,0.0279 0.0041,0.008 -0.0041,0.0196 0,0.0279 0.0037,0.007 0.07642,0.08 0.08384,0.0839 0.0084,0.003 0.02135,-0.007 0.02795,0 0.0066,0.007 -0.0041,0.0196 0,0.0279 0.0058,0.012 0.01863,0.0186 0.02795,0.0279 0.0093,0.0101 0.01863,0.0186 0.02795,0.0279 0.0093,0.0101 0.01863,0.0186 0.02795,0.0279 0.0093,0.0101 0.02206,0.0161 0.02795,0.0279 0.0041,0.008 -0.0041,0.0196 0,0.028 0.0058,0.012 0.02204,0.0161 0.02795,0.0279 0.0041,0.008 -0.0041,0.0196 0,0.0279 0.0058,0.012 0.02205,0.0161 0.02795,0.0279 0.0041,0.008 -0.0066,0.0214 0,0.0279 0.05783,0.0578 -0.0022,-0.0883 0.05589,0.0279 0.0041,0.008 -0.0041,0.0196 0,0.0279 0.0058,0.012 0.02206,0.0161 0.02795,0.0279 0.0041,0.008 -0.0041,0.0196 0,0.028 0.01183,0.0235 0.04756,0.0308 0.05589,0.0559 0.0058,0.0177 -0.0084,0.0392 0,0.0559 0.0041,0.008 0.02135,-0.007 0.02795,0 0.0066,0.007 -0.0041,0.0196 0,0.028 0.0058,0.012 0.02205,0.0161 0.02795,0.0279 0.0041,0.008 -0.0066,0.0214 0,0.0279 0.0066,0.007 0.02135,-0.007 0.02795,0 0.01318,0.0131 -0.0084,0.0392 0,0.0559 0.0058,0.012 0.02206,0.0161 0.02795,0.0279 0.0041,0.008 -0.0066,0.0214 0,0.028 0.0066,0.007 0.02135,-0.007 0.02795,0 0.0066,0.007 -0.0041,0.0196 0,0.0279 0.0058,0.012 0.02378,0.0155 0.02795,0.0279 0.0058,0.0177 -0.0084,0.0392 0,0.0559 0.0041,0.008 0.02135,-0.007 0.02795,0 0.01318,0.0131 -0.0084,0.0392 0,0.0559 0.01184,0.0235 0.0441,0.0323 0.05589,0.0559 0.0062,0.0124 -0.0043,0.0991 0,0.11174 0.0084,0.025 0.04756,0.0309 0.05589,0.0559 0.0058,0.0177 -0.0046,0.0379 0,0.0559 0.01387,0.0555 0.06997,0.11221 0.08384,0.16766 0.01135,0.0452 -0.0091,0.094 0,0.13974 0.004,0.0204 0.0229,0.0358 0.02795,0.0559 0.0046,0.018 -0.0046,0.0378 0,0.0559 0.005,0.0202 0.0229,0.0358 0.02795,0.0559 0.0046,0.018 0,0.0373 0,0.0559 0,0.0466 -0.0091,0.094 0,0.13973 0.004,0.0204 0.0229,0.0358 0.02795,0.0559 0.0046,0.018 0,0.0373 0,0.0559 v 0.0559 0.16768 0.58683 0.50301 0.19563 c 0,0.0186 0.0046,0.0378 0,0.0559 -0.0102,0.0403 -0.04772,0.0709 -0.05589,0.11173 -0.0055,0.0274 0.0055,0.0564 0,0.0838 -0.004,0.0204 -0.0229,0.0358 -0.02795,0.0559 -0.0046,0.018 0.0037,0.0376 0,0.0559 0.0065,0.0562 -0.04372,0.091 -0.05589,0.13973 -0.0046,0.0181 0,0.0373 0,0.0559 v 0.0839 c 0,0.0186 0.0046,0.0378 0,0.0559 -0.005,0.0202 -0.0229,0.0358 -0.02795,0.0559 -0.0091,0.0362 0.0091,0.0756 0,0.11173 -0.005,0.0202 -0.0229,0.0358 -0.02795,0.0559 -0.01135,0.0452 0.0091,0.094 0,0.13972 -0.004,0.0204 -0.0229,0.0358 -0.02795,0.0559 -0.0091,0.0362 0.0091,0.0756 0,0.11174 -0.005,0.0202 -0.0229,0.0358 -0.02795,0.0559 -0.0046,0.018 0.0037,0.0377 0,0.0559 -0.0057,0.0289 -0.02217,0.0549 -0.02795,0.0838 -0.0089,0.0439 0.01087,0.0963 0,0.13973 -0.005,0.0202 -0.02386,0.0355 -0.02795,0.0559 -0.0055,0.0273 0.0055,0.0564 0,0.0838 -0.004,0.0204 -0.0229,0.0357 -0.02795,0.0559 -0.0046,0.0181 0.0037,0.0377 0,0.0559 -0.0057,0.0289 -0.02217,0.0549 -0.02795,0.0838 -0.01042,0.0518 0.01042,0.14387 0,0.19562 -0.0065,0.0325 -0.0346,0.10781 -0.05589,0.13972 -0.0073,0.0112 -0.02378,0.0155 -0.02795,0.0279 -0.01184,0.0354 0.0073,0.0753 0,0.11174 0.0065,0.0562 -0.04372,0.0911 -0.05589,0.13973 -0.0046,0.018 0.0037,0.0377 0,0.0559 -0.0057,0.0289 -0.02217,0.0549 -0.02795,0.0838 -0.01938,0.0969 0.02325,0.0234 0,0.13973 -0.004,0.0204 -0.02021,0.0365 -0.02795,0.0559 -0.01098,0.0274 -0.01863,0.0559 -0.02795,0.0839 -0.0093,0.0279 -0.02217,0.0549 -0.02795,0.0838 -0.0037,0.0183 0,0.0373 0,0.0559 v 0.0838 c 0,0.0186 0.0046,0.0378 0,0.0559 -0.005,0.0202 -0.0229,0.0358 -0.02795,0.0559 -0.01135,0.0452 0.0091,0.094 0,0.13974 -0.004,0.0204 -0.02386,0.0355 -0.02795,0.0559 -0.0055,0.0273 0.0055,0.0564 0,0.0838 -0.004,0.0204 -0.0229,0.0358 -0.02795,0.0559 -0.0046,0.018 0.0046,0.0379 0,0.0559 -0.0102,0.0403 -0.04772,0.0709 -0.05589,0.11185 -0.0055,0.0273 0.0046,0.0563 0,0.0838 -0.0086,0.0518 -0.03308,0.0942 -0.05589,0.13974 -0.0093,0.0186 -0.0229,0.0358 -0.02795,0.0559 -0.03198,0.1279 0.05645,-0.029 -0.02795,0.13972 -0.01183,0.0235 -0.04755,0.0308 -0.05589,0.0559 -0.0058,0.0177 0.0058,0.0382 0,0.0559 -0.0041,0.0125 -0.01863,0.0186 -0.02795,0.0279 -0.0093,0.0186 -0.0229,0.0358 -0.02795,0.0559 -0.03197,0.12789 0.05645,-0.029 -0.02795,0.13972 -0.0058,0.012 -0.02378,0.0155 -0.02795,0.0279 -0.0058,0.0177 0.0084,0.0392 0,0.0559 -0.01183,0.0235 -0.03725,0.0373 -0.05589,0.0559 -0.0093,0.0279 -0.01477,0.0575 -0.02795,0.0838 -0.01502,0.03 -0.03725,0.0559 -0.05589,0.0839 -0.02795,0.0279 -0.06423,0.0494 -0.08384,0.0838 -0.01906,0.0334 -0.0089,0.0783 -0.02795,0.11174 -0.01961,0.0343 -0.05855,0.0535 -0.08384,0.0839 -0.100114,0.12013 -0.02081,0.0416 -0.08384,0.16768 -0.01502,0.03 -0.04342,0.0527 -0.05589,0.0838 -0.0069,0.0174 0.0046,0.0378 0,0.0559 -0.0102,0.0403 -0.04042,0.0732 -0.05589,0.11173 -0.112516,0.2813 0.02182,-0.0594 -0.02795,0.13972 -0.01098,0.0437 -0.07556,0.12628 -0.08384,0.16767 -0.06348,0.31737 0.07961,-0.13125 -0.05589,0.13974 -0.0084,0.0166 0.01031,0.0403 0,0.0559 -0.01159,0.0174 -0.04339,0.0112 -0.05589,0.0279 -0.0415,0.0554 -0.01439,0.0844 -0.05589,0.13972 -0.01581,0.0211 -0.04008,0.0347 -0.05589,0.0559 -0.0125,0.0166 -0.01863,0.0373 -0.02795,0.0559 -0.05457,0.10916 -0.04595,0.10345 -0.11178,0.19561 -0.02708,0.0379 -0.05353,0.0764 -0.08384,0.11185 -0.09908,0.11555 -0.06914,0.0441 -0.139726,0.16767 -0.03101,0.0543 -0.05589,0.11174 -0.08384,0.16767 -0.01863,0.0373 -0.04042,0.0731 -0.05589,0.11174 -0.0161,0.0402 -0.02781,0.10232 -0.05589,0.13972 -0.01581,0.0211 -0.04008,0.0347 -0.05589,0.0559 -0.0281,0.0374 -0.0398,0.0994 -0.05589,0.13974 -0.01548,0.0387 -0.03725,0.0745 -0.05589,0.11173 -0.02795,0.0559 -0.05589,0.11174 -0.08384,0.16767 -0.0093,0.0186 -0.0164,0.0386 -0.02795,0.0559 -0.03409,0.0511 -0.03564,0.002 -0.05589,0.0838 -0.02067,0.0827 0.03143,0.0326 -0.02795,0.11173 -0.01581,0.0211 -0.0441,0.0324 -0.05589,0.0559 -0.0084,0.0166 0.0084,0.0392 0,0.0559 -0.01183,0.0235 -0.04008,0.0347 -0.05589,0.0559 -0.0125,0.0167 -0.01724,0.038 -0.02795,0.0559 -0.01728,0.0288 -0.03861,0.055 -0.05589,0.0838 -0.01076,0.0178 -0.01321,0.0411 -0.02795,0.0559 -0.02375,0.0238 -0.06008,0.0322 -0.08384,0.0559 -0.0066,0.007 0.0041,0.0196 0,0.0279 -0.01502,0.03 -0.03861,0.055 -0.05589,0.0838 -0.01076,0.0178 -0.01545,0.0392 -0.02795,0.0559 -0.01581,0.0211 -0.04008,0.0347 -0.05589,0.0559 -0.0125,0.0166 -0.01863,0.0373 -0.02795,0.0559 -0.02795,0.0373 -0.05402,0.076 -0.08384,0.11174 -0.01688,0.0202 -0.03726,0.0373 -0.05589,0.0559 -0.0652,0.0652 -0.13041,0.13042 -0.195616,0.19562 -0.01863,0.0186 -0.03902,0.0356 -0.05589,0.0559 -0.02981,0.0358 -0.05402,0.076 -0.08384,0.11173 -0.116722,0.14007 0.0092,-0.0558 -0.139725,0.16768 -0.01159,0.0174 -0.01546,0.0392 -0.02795,0.0559 -0.01581,0.0211 -0.04008,0.0347 -0.05589,0.0559 -0.0125,0.0166 -0.01724,0.038 -0.02795,0.0559 -0.01728,0.0288 -0.03861,0.055 -0.05589,0.0837 -0.02144,0.0358 -0.03279,0.0771 -0.05589,0.11173 -0.0073,0.0112 -0.02378,0.0155 -0.02795,0.0279 -0.0058,0.0177 0.0058,0.0382 0,0.0559 -0.0041,0.0126 -0.02063,0.0169 -0.02795,0.028 -0.01159,0.0174 -0.01863,0.0373 -0.02795,0.0559 -0.0093,0.0186 -0.02386,0.0355 -0.02795,0.0559 -0.0055,0.0273 0.0055,0.0564 0,0.0838 -0.0083,0.0414 -0.07289,0.12391 -0.08384,0.16767 -0.0046,0.018 0.0037,0.0377 0,0.0559 -0.02907,0.14536 -0.01863,0.0279 -0.05589,0.13972 -0.003,0.008 0,0.0186 0,0.0279 v 0.0559 0.22356 0.25151 0.11174 c 0,0.0186 -0.0046,0.0378 0,0.0559 0.005,0.0202 0.0229,0.0358 0.02795,0.0559 0.0046,0.018 -0.0037,0.0376 0,0.0559 0.0057,0.0289 0.02217,0.0549 0.02795,0.0838 0.0037,0.0183 -0.0046,0.0378 0,0.0559 0.005,0.0202 0.01863,0.0373 0.02795,0.0559 0.0093,0.0279 0.02217,0.0549 0.02795,0.0838 0.0037,0.0183 -0.0046,0.0379 0,0.0559 0.005,0.0202 0.01863,0.0373 0.02795,0.0559 0.02279,0.0456 0.04726,0.088 0.05589,0.13972 0.0046,0.0276 -0.0076,0.057 0,0.0839 0.01148,0.04 0.03948,0.0735 0.05589,0.11174 0.01159,0.0271 0.017,0.0565 0.02795,0.0838 0.0077,0.0194 0.0229,0.0358 0.02795,0.0559 0.04977,0.19905 -0.08458,-0.14158 0.02795,0.13973 0.02398,0.06 0.04559,0.0676 0.05589,0.13972 0.0053,0.0369 -0.0053,0.0749 0,0.11174 0.0041,0.0291 0.01863,0.0559 0.02795,0.0838 0.0093,0.0279 0.01863,0.0559 0.02795,0.0839 0.0093,0.0279 0.0231,0.0547 0.02795,0.0838 0.0046,0.0276 -0.0076,0.057 0,0.0839 0.01146,0.04 0.04126,0.0727 0.05589,0.11174 0.01348,0.036 0.01739,0.0747 0.02795,0.11173 0.01618,0.0566 0.04621,0.10961 0.05589,0.16768 0.0046,0.0276 0,0.0559 0,0.0838 0.0093,0.028 0.0231,0.0547 0.02795,0.0838 0.0046,0.0276 -0.0055,0.0564 0,0.0838 0.0081,0.0409 0.04579,0.0714 0.05589,0.11174 0.0046,0.018 0,0.0373 0,0.0559 v 0.0838 0.2515 0.4192 0.0838 c 0,0.0279 0.0055,0.0564 0,0.0839 -0.004,0.0204 -0.0229,0.0358 -0.02795,0.0559 -0.01213,0.0485 0.01213,0.11915 0,0.16769 -0.005,0.0202 -0.0229,0.0358 -0.02795,0.0559 -0.0057,0.0227 0,0.13842 0,0.16767 v 0.41917 1.20164 c 0,0.007 8.85e-4,0.0829 0,0.0838 -0.0066,0.007 -0.02135,-0.007 -0.02795,0 -0.0066,0.007 0,0.0186 0,0.028 v 0.0279 c 0,0.0198 0.0036,0.16045 0,0.16767 -0.0058,0.012 -0.02205,0.0161 -0.02795,0.0279 -0.0096,0.0193 0.0098,0.12991 0,0.13973 -0.0066,0.007 -0.02135,-0.007 -0.02795,0 -0.0066,0.007 0,0.0186 0,0.0279 v 0.16767 c 0,0.0101 0.0066,0.0214 0,0.0279 -0.0066,0.007 -0.02136,-0.007 -0.02795,0 -0.0028,0.002 0.01747,0.24107 0.01747,0.24107 l 6.584651,-0.53477 c -0.01375,-0.0275 -0.105023,-0.23794 -0.118765,-0.26542 -0.0041,-0.008 0.0066,-0.0214 0,-0.028 -0.0066,-0.007 -0.02378,0.008 -0.02795,0 -0.0084,-0.0166 0.0058,-0.0382 0,-0.0559 -0.0084,-0.025 -0.0495,-0.0304 -0.05589,-0.0559 -0.01897,-0.0759 0.02871,-0.074 -0.02795,-0.11173 -0.1285,-0.0857 0.01612,0.0548 -0.08384,-0.11174 -0.02711,-0.0452 -0.07886,-0.0706 -0.111769,-0.11173 -0.04271,-0.0535 -0.05395,-0.10121 -0.111781,-0.13974 -0.0077,-0.004 -0.02136,0.007 -0.02795,0 -0.01473,-0.0147 -0.0164,-0.0386 -0.02795,-0.0559 -0.0073,-0.0112 -0.02204,-0.0161 -0.02795,-0.0279 -0.0041,-0.008 0.0066,-0.0214 0,-0.0279 -0.0066,-0.007 -0.01961,0.003 -0.02795,0 -0.02357,-0.012 -0.03397,-0.0412 -0.05589,-0.0559 -0.01733,-0.012 -0.04116,-0.0132 -0.05589,-0.0279 -0.0066,-0.007 0.0052,-0.0202 0,-0.0279 -0.04835,-0.0725 -0.04993,-0.0426 -0.111769,-0.0839 -0.02193,-0.0146 -0.03232,-0.044 -0.05589,-0.0559 -0.0084,-0.003 -0.01961,0.003 -0.02795,0 -0.116304,-0.0582 0.02988,0.002 -0.02795,-0.0559 -0.0066,-0.007 -0.01962,0.003 -0.02795,0 -0.01183,-0.006 -0.01617,-0.0221 -0.02795,-0.0279 -0.01665,-0.008 -0.04272,0.0131 -0.05589,0 -0.0066,-0.007 0.0066,-0.0214 0,-0.0279 -0.0066,-0.007 -0.01911,0.002 -0.02795,0 -0.01977,-0.007 -0.03613,-0.0214 -0.05589,-0.0279 -0.01767,-0.006 -0.03782,0.004 -0.05589,0 -0.232601,-0.0582 0.03373,0.002 -0.139725,-0.0559 -0.02652,-0.008 -0.05672,0.007 -0.08384,0 -0.18823,-0.0471 -4.43e-4,-4.5e-4 -0.05589,-0.0559 -0.01318,-0.0131 -0.03923,0.008 -0.05589,0 -0.01183,-0.006 -0.01617,-0.0221 -0.02795,-0.0279 -0.0084,-0.003 -0.02136,0.007 -0.02795,0 -0.0066,-0.007 0.0066,-0.0214 0,-0.028 -0.0066,-0.007 -0.01961,0.003 -0.02795,0 -0.01183,-0.006 -0.01617,-0.022 -0.02795,-0.0279 -0.01665,-0.008 -0.03923,0.008 -0.05589,0 -0.01183,-0.006 -0.01615,-0.0221 -0.02795,-0.0279 -0.0084,-0.003 -0.02135,0.007 -0.02795,0 -0.0066,-0.007 0.0066,-0.0214 0,-0.0279 -0.0066,-0.007 -0.01961,0.003 -0.02795,0 -0.02357,-0.012 -0.03089,-0.0475 -0.05589,-0.0559 -0.01767,-0.006 -0.03822,0.006 -0.05589,0 -0.025,-0.008 -0.03232,-0.044 -0.05589,-0.0559 -0.0084,-0.003 -0.02135,0.007 -0.02795,0 -0.0066,-0.007 0.0066,-0.0214 0,-0.0279 -0.0066,-0.007 -0.01962,0.003 -0.02795,0 -0.08522,-0.0427 0.0511,-0.0221 -0.08384,-0.0559 -0.07252,-0.0182 -0.04392,0.0286 -0.111769,-0.0279 -0.04048,-0.0337 -0.0671,-0.0839 -0.111781,-0.11173 -0.03258,-0.0203 -0.07535,-0.0158 -0.11178,-0.0279 -0.06275,-0.021 -0.07595,-0.052 -0.139726,-0.0839 -0.02635,-0.0131 -0.05749,-0.0148 -0.08384,-0.0279 -0.01184,-0.006 -0.01615,-0.0221 -0.02795,-0.0279 -0.0084,-0.003 -0.02136,0.007 -0.02795,0 -0.0066,-0.007 0.0066,-0.0214 0,-0.028 -0.0066,-0.007 -0.02135,0.007 -0.02795,0 -0.0066,-0.007 0.0041,-0.0196 0,-0.0279 -0.0058,-0.012 -0.01863,-0.0186 -0.02795,-0.0279 -0.02183,-0.0219 -0.06776,-0.0597 -0.08384,-0.0838 -0.02311,-0.0346 -0.03278,-0.0771 -0.05589,-0.11174 -0.0073,-0.0112 -0.02063,-0.0169 -0.02795,-0.0279 -0.01159,-0.0174 -0.01545,-0.0392 -0.02795,-0.0559 -0.01581,-0.0211 -0.04128,-0.034 -0.05589,-0.0559 -0.0052,-0.007 0.0022,-0.0189 0,-0.0279 -0.0072,-0.0286 -0.01279,-0.0585 -0.02795,-0.0839 -0.01355,-0.0226 -0.0441,-0.0324 -0.05589,-0.0559 -0.0084,-0.0166 0.0084,-0.0392 0,-0.0559 -0.01182,-0.0235 -0.04234,-0.0333 -0.05589,-0.0559 -0.07233,-0.12056 -0.0036,-0.0423 -0.02795,-0.13972 -0.01098,-0.0437 -0.07556,-0.12627 -0.08384,-0.16767 -0.0055,-0.0274 0.0046,-0.0563 0,-0.084 -0.0049,-0.029 -0.01863,-0.0559 -0.02795,-0.0838 -0.0093,-0.028 -0.01477,-0.0575 -0.02795,-0.0839 -0.01502,-0.03 -0.04087,-0.0538 -0.05589,-0.0839 -0.02635,-0.0527 -0.03268,-0.11352 -0.05589,-0.16767 -0.01641,-0.0382 -0.04272,-0.0723 -0.05589,-0.11174 -0.06394,-0.19184 0.106995,0.13017 -0.02795,-0.13972 -0.01502,-0.03 -0.04342,-0.0527 -0.05589,-0.0839 -0.0069,-0.0174 0.0037,-0.0377 0,-0.0559 -0.0057,-0.0289 -0.017,-0.0565 -0.02795,-0.0839 -0.0016,-0.003 -0.05562,-0.1104 -0.05589,-0.11174 -0.0055,-0.0273 0.0055,-0.0564 0,-0.0837 -0.004,-0.0204 -0.01863,-0.0373 -0.02795,-0.0559 -0.02485,-0.0498 -0.04438,-0.0823 -0.05589,-0.13973 -0.0073,-0.0365 0.0091,-0.0756 0,-0.11174 -0.0102,-0.0403 -0.04041,-0.0731 -0.05589,-0.11174 -0.112517,-0.28131 0.02182,0.0593 -0.02795,-0.13974 -0.0102,-0.0403 -0.04579,-0.0713 -0.05589,-0.11173 -0.0046,-0.0181 0.0037,-0.0377 0,-0.0559 -0.01159,-0.0578 -0.03971,-0.11106 -0.05589,-0.16767 -0.01054,-0.037 -0.01739,-0.0749 -0.02795,-0.11173 -0.0082,-0.0284 -0.02217,-0.055 -0.02795,-0.084 -0.0091,-0.0456 0.0091,-0.094 0,-0.13973 -0.0082,-0.0409 -0.04579,-0.0713 -0.05589,-0.11173 -0.0046,-0.0181 0,-0.0373 0,-0.0559 -0.0093,-0.0373 -0.01739,-0.0747 -0.02795,-0.11173 -0.01618,-0.0566 -0.03401,-0.11293 -0.05589,-0.16767 -0.0077,-0.0194 -0.02386,-0.0355 -0.02795,-0.0559 -0.0091,-0.0456 0.01135,-0.0945 0,-0.13973 -0.04561,-0.18244 -0.01501,0.10568 -0.05589,-0.13972 -0.0046,-0.0276 0.0046,-0.0563 0,-0.0839 -0.0049,-0.029 -0.0231,-0.0547 -0.02795,-0.0838 -0.0092,-0.055 0.0092,-0.11257 0,-0.16766 -0.0049,-0.029 -0.0231,-0.0547 -0.02795,-0.0838 -0.0046,-0.0276 0,-0.0559 0,-0.0839 v -0.19561 c 0,-0.028 0.0055,-0.0564 0,-0.0839 -0.004,-0.0204 -0.02386,-0.0355 -0.02795,-0.0559 -0.0055,-0.0274 0,-0.0559 0,-0.0839 v -0.25151 c 0,-0.0279 0.0055,-0.0564 0,-0.0838 -0.004,-0.0204 -0.0229,-0.0358 -0.02795,-0.0559 -0.0046,-0.018 0,-0.0373 0,-0.0559 v -0.13972 -0.39125 -0.22355 -0.0559 c 0,-0.0186 -0.0046,-0.0378 0,-0.0559 0.0102,-0.0403 0.04771,-0.0709 0.05589,-0.11174 0.0055,-0.0273 -0.0055,-0.0564 0,-0.0839 0.0098,-0.049 0.07405,-0.11877 0.08384,-0.16767 0.0055,-0.0273 -0.0046,-0.0563 0,-0.0838 0.01939,-0.11627 0.02547,-0.0485 0.05589,-0.13972 0.04234,0.0251 0.02315,-0.1485 0.02795,-0.16766 0.005,-0.0202 0.0229,-0.0357 0.02795,-0.0559 0.0046,-0.018 -0.0046,-0.0379 0,-0.0559 0.0055,-0.022 0.05038,-0.0898 0.05589,-0.11174 0.0046,-0.018 -0.0046,-0.0379 0,-0.0559 0.0102,-0.0403 0.04579,-0.0713 0.05589,-0.11174 0.0046,-0.018 -0.0046,-0.0378 0,-0.0559 0.0102,-0.0403 0.04041,-0.0731 0.05589,-0.11173 0.06929,-0.0264 0.01579,-0.0754 0.02795,-0.11174 0.01318,-0.0396 0.04579,-0.0714 0.05589,-0.11174 0.0046,-0.018 -0.0058,-0.0382 0,-0.0559 0.0084,-0.025 0.04756,-0.0309 0.05589,-0.0559 0.0058,-0.0177 -0.0046,-0.0378 0,-0.0559 0.03373,-0.13494 0.01327,10e-4 0.05589,-0.0839 0.0041,-0.008 -0.003,-0.0192 0,-0.0279 0.0066,-0.0197 0.02135,-0.0361 0.02795,-0.0559 0.003,-0.008 -0.003,-0.0192 0,-0.028 0.01318,-0.0396 0.04772,-0.0709 0.05589,-0.11173 0.0091,-0.0456 -0.01135,-0.0945 0,-0.13974 0.005,-0.0202 0.0229,-0.0358 0.02795,-0.0559 0.0046,-0.018 -0.0046,-0.0379 0,-0.0559 0.005,-0.0202 0.02386,-0.0355 0.02795,-0.0559 0.0055,-0.0273 -0.0055,-0.0564 0,-0.0838 0.0083,-0.0414 0.07289,-0.12392 0.08384,-0.16768 0.0091,-0.0362 -0.01184,-0.0764 0,-0.11174 0.0084,-0.025 0.04411,-0.0324 0.05589,-0.0559 0.0084,-0.0166 -0.0084,-0.0392 0,-0.0559 0.0058,-0.012 0.02378,-0.0155 0.02795,-0.028 0,-0.12721 -0.01318,-0.001 0.02795,-0.0838 0.0041,-0.008 0,-0.0186 0,-0.0279 0,-0.0279 -0.0089,-0.0574 0,-0.0839 0.003,-0.008 0.01863,0 0.02795,0 0.0093,-0.0101 0.02474,-0.0151 0.02795,-0.0279 0.01334,-0.0534 -0.01076,-0.11388 0,-0.16768 0.0057,-0.0289 0.02217,-0.055 0.02795,-0.0839 0.0073,-0.0365 -0.0091,-0.0756 0,-0.11173 0.005,-0.0202 0.0229,-0.0358 0.02795,-0.0559 0.0046,-0.018 -0.0046,-0.0379 0,-0.0559 0.0055,-0.022 0.05038,-0.0898 0.05589,-0.11174 0.0046,-0.018 -0.0046,-0.0378 0,-0.0559 0.005,-0.0202 0.0229,-0.0357 0.02795,-0.0559 0.0091,-0.0361 -0.0091,-0.0756 0,-0.11173 -0.01683,-0.0506 0.04527,-0.052 0.05589,-0.0838 0.01502,-0.0451 0.01491,-0.094 0.02795,-0.13973 0.01148,-0.04 0.04579,-0.0713 0.05589,-0.11174 0.0046,-0.018 -0.0046,-0.0379 0,-0.0559 0.005,-0.0202 0.02021,-0.0365 0.02795,-0.0559 0.01098,-0.0273 0.017,-0.0565 0.02795,-0.0839 0.0077,-0.0194 0.02386,-0.0355 0.02795,-0.0559 0.0055,-0.0274 -0.0055,-0.0564 0,-0.0839 0.0081,-0.0409 0.04579,-0.0713 0.05589,-0.11174 0.04977,-0.19905 -0.08458,0.14158 0.02795,-0.13972 0.01548,-0.0388 0.04579,-0.0714 0.05589,-0.11174 0.0046,-0.018 -0.0046,-0.0378 0,-0.0559 0.005,-0.0202 0.02021,-0.0365 0.02795,-0.0559 0.01098,-0.0273 0.017,-0.0565 0.02795,-0.0838 0.0077,-0.0194 0.0229,-0.0358 0.02795,-0.0559 0.0046,-0.018 -0.0046,-0.0379 0,-0.0559 0.0102,-0.0403 0.04042,-0.0732 0.05589,-0.11174 0.01098,-0.0273 0.017,-0.0565 0.02795,-0.0838 0.0077,-0.0194 0.01863,-0.0373 0.02795,-0.0559 0.01863,-0.0186 0.0441,-0.0324 0.05589,-0.0559 0.0084,-0.0166 -0.0046,-0.0378 0,-0.0559 0.005,-0.0202 0.01863,-0.0373 0.02795,-0.0559 0.0093,-0.0279 0.02217,-0.0549 0.02795,-0.0838 0.02986,-0.1493 -0.0531,0.0629 0.02795,-0.13972 0.01548,-0.0387 0.04042,-0.0732 0.05589,-0.11174 0.01098,-0.0273 0.01279,-0.0585 0.02795,-0.0838 0.01356,-0.0226 0.04411,-0.0324 0.05589,-0.0559 0.0084,-0.0166 -0.0046,-0.0378 0,-0.0559 0.0102,-0.0403 0.04042,-0.0731 0.05589,-0.11173 0.05758,-0.0378 0.01293,-0.0946 0.02795,-0.13972 0.0084,-0.025 0.04411,-0.0324 0.05589,-0.0559 0.0041,-0.008 -0.0041,-0.0196 0,-0.0279 0.0058,-0.012 0.02063,-0.0169 0.02795,-0.0279 0.01159,-0.0174 0.0164,-0.0385 0.02795,-0.0559 0.0073,-0.0112 0.02063,-0.0169 0.02795,-0.0279 0.01159,-0.0174 0.01545,-0.0392 0.02795,-0.0559 0.01581,-0.0211 0.04008,-0.0347 0.05589,-0.0559 0.0125,-0.0167 0.01321,-0.0412 0.02795,-0.0559 0.01474,-0.0147 0.04338,-0.0112 0.05589,-0.0279 0.01767,-0.0235 0.01031,-0.0602 0.02795,-0.0838 0.0125,-0.0166 0.03923,-0.0155 0.05589,-0.0279 0.03162,-0.0238 0.05095,-0.0619 0.08384,-0.0839 0.06425,-0.0428 0.07547,-0.013 0.139725,-0.0559 0.02193,-0.0146 0.03397,-0.0412 0.05589,-0.0559 0.01733,-0.012 0.03856,-0.0164 0.05589,-0.0279 0.01098,-0.007 0.01617,-0.0221 0.02795,-0.028 0.0084,-0.003 0.01911,0.002 0.02795,0 0.03952,-0.0131 0.07137,-0.0457 0.111781,-0.0559 0.01808,-0.004 0.03782,0.004 0.05589,0 0.04041,-0.0101 0.07225,-0.0428 0.11177,-0.0559 0.0089,-0.002 0.01911,0.002 0.02795,0 0.01976,-0.007 0.03656,-0.0202 0.05589,-0.028 0.02736,-0.0112 0.05648,-0.0169 0.08384,-0.0279 0.01934,-0.007 0.03656,-0.0202 0.05589,-0.0279 0.05469,-0.0219 0.11177,-0.0373 0.16767,-0.0559 0.02795,-0.0101 0.05589,-0.0186 0.08384,-0.0279 0.02795,-0.0101 0.05478,-0.0231 0.08384,-0.028 0.02757,-0.004 0.05589,0 0.08384,0 0.04658,-0.0101 0.09365,-0.0164 0.139725,-0.0279 0.02858,-0.007 0.05552,-0.0198 0.08384,-0.0279 0.03694,-0.0112 0.07485,-0.0175 0.11177,-0.0279 0.02832,-0.008 0.05477,-0.0231 0.08384,-0.0279 0.02757,-0.004 0.05627,0.004 0.08384,0 0.05685,0.0101 0.09054,-0.0461 0.139725,-0.0559 0.0274,-0.006 0.05672,0.007 0.08384,0 0.01278,-0.003 0.01545,-0.0238 0.02795,-0.0279 0.01767,-0.006 0.03783,0.004 0.05589,0 0.02021,-0.004 0.03656,-0.0202 0.05589,-0.0279 0.109169,-0.0436 0.225227,-0.0705 0.335341,-0.11174 0.0015,-5.3e-4 0.189406,-0.079 0.223561,-0.0838 0.03688,-0.004 0.0749,0.004 0.11177,0 0.02916,-0.003 0.05589,-0.0186 0.08384,-0.028 0.05589,-0.0186 0.11178,-0.0373 0.167671,-0.0559 0.02795,-0.0101 0.05478,-0.0231 0.08384,-0.0279 0.263063,-0.0438 -0.136817,0.067 0.195615,-0.0279 0.05665,-0.0161 0.109561,-0.0463 0.167669,-0.0559 0.02757,-0.004 0.05644,0.006 0.08384,0 0.04893,-0.0101 0.118741,-0.0741 0.167671,-0.0838 0.0274,-0.006 0.05644,0.006 0.08384,0 0.05058,0.0168 0.05197,-0.0453 0.08384,-0.0559 0.01767,-0.006 0.03725,0 0.05589,0 0.02795,-0.0101 0.05648,-0.0169 0.08384,-0.0279 0.03868,-0.0154 0.07136,-0.0457 0.11177,-0.0559 0.03614,-0.0101 0.07563,0.0101 0.111769,0 0.02021,-0.004 0.03656,-0.0202 0.05589,-0.0279 0.02736,-0.0112 0.05589,-0.0186 0.08384,-0.0279 0.02795,-0.0101 0.05478,-0.0231 0.08384,-0.028 0.02757,-0.004 0.05644,0.006 0.08384,0 0.04084,-0.008 0.07136,-0.0457 0.111769,-0.0559 0.01808,-0.004 0.03762,0.003 0.05589,0 0.02888,-0.006 0.05495,-0.0222 0.08384,-0.0279 0.01827,-0.003 0.03782,0.004 0.05589,0 0.04041,-0.0101 0.07225,-0.0427 0.111769,-0.0559 0.01087,-0.003 0.0795,0.004 0.08384,0 0.0066,-0.007 -0.0066,-0.0214 0,-0.0279 0.01318,-0.0131 0.03922,0.008 0.05589,0 0.01183,-0.006 0.01617,-0.0221 0.02795,-0.0279 0.01478,-0.007 0.09816,0.003 0.111781,0 0.02021,-0.004 0.03568,-0.023 0.05589,-0.028 0.02125,-0.004 0.116328,0 0.139725,0 h 0.251505 0.139726 c 0.01863,0 0.03822,-0.006 0.05589,0 0.01976,0.007 0.03613,0.0214 0.05589,0.028 0.0089,0.002 0.01911,-0.002 0.02795,0 0.01976,0.007 0.03613,0.0214 0.05589,0.0279 0.01767,0.006 0.04272,-0.0131 0.05589,0 0.0066,0.007 -0.0066,0.0214 0,0.0279 0.0066,0.007 0.01962,-0.003 0.02795,0 0.02357,0.012 0.03232,0.044 0.05589,0.0559 0.01665,0.008 0.03922,-0.008 0.05589,0 0.01183,0.006 0.01617,0.0221 0.02795,0.0279 0.0084,0.003 0.01961,-0.003 0.02795,0 0.01184,0.006 0.01617,0.0221 0.02795,0.0279 0.0084,0.003 0.01961,-0.003 0.02795,0 0.01183,0.006 0.01617,0.0221 0.02795,0.0279 0.0084,0.003 0.02135,-0.007 0.02795,0 0.0066,0.007 -0.0066,0.0214 0,0.028 0.0066,0.007 0.02135,-0.007 0.02795,0 0.0066,0.007 -0.0041,0.0196 0,0.0279 0.0058,0.012 0.01863,0.0186 0.02795,0.0279 0.0093,0.0101 0.01617,0.0221 0.02795,0.0279 0.0084,0.003 0.01962,-0.003 0.02795,0 0.08522,0.0427 -0.0511,0.0221 0.08384,0.0559 0.01808,0.004 0.03822,-0.006 0.05589,0 0.0125,0.003 0.01698,0.0207 0.02795,0.028 0.01733,0.012 0.03856,0.0164 0.05589,0.0279 0.01098,0.007 0.01617,0.0221 0.02795,0.0279 0.03855,0.0193 0.02499,-0.0339 0.05589,0.0279 0.0041,0.008 -0.0066,0.0214 0,0.0279 0.0066,0.007 0.01962,-0.003 0.02795,0 0.01183,0.006 0.01617,0.0221 0.02795,0.028 0.0084,0.003 0.01961,-0.003 0.02795,0 0.01123,0.006 0.11094,0.11084 0.111792,0.11174 0.02183,0.0218 0.06775,0.0597 0.08384,0.0839 0.02311,0.0346 0.03089,0.0785 0.05589,0.11173 0.02347,0.0313 0.06036,0.0526 0.08384,0.0838 0.02015,0.0269 0.03574,0.0571 0.05589,0.084 0.0078,0.0112 0.02063,0.0169 0.02795,0.0279 0.01159,0.0174 0.01545,0.0392 0.02795,0.0559 0.131624,0.1755 -0.02498,-0.0882 0.111781,0.13973 0.01076,0.0178 0.01863,0.0373 0.02795,0.0559 0.0093,0.0186 0.02136,0.0361 0.02795,0.0559 0.003,0.008 -0.0041,0.0196 0,0.0279 0.0058,0.012 0.02206,0.0161 0.02795,0.0279 0.0041,0.008 -0.0041,0.0196 0,0.0279 0.0058,0.012 0.01617,0.0221 0.02795,0.0279 0.0084,0.003 0.02378,-0.008 0.02795,0 0.0084,0.0167 -0.0058,0.0382 0,0.0559 0.0084,0.025 0.04756,0.0308 0.05589,0.0559 0.0058,0.0177 -0.0058,0.0382 0,0.0559 0.0084,0.025 0.04411,0.0323 0.05589,0.0559 0.0041,0.008 -0.0041,0.0196 0,0.0279 0.03551,0.0709 0.0334,-0.0287 0.05589,0.0838 0.0055,0.0273 -0.0068,0.0568 0,0.0839 0.0064,0.0256 0.04949,0.0304 0.05589,0.0559 0.0068,0.0271 -0.0068,0.0568 0,0.0839 0.0064,0.0256 0.0441,0.0324 0.05589,0.0559 0.0041,0.008 -0.0041,0.0196 0,0.0279 0.01677,0.0336 0.06708,0.0503 0.08384,0.0839 0.0041,0.008 -0.0041,0.0196 0,0.0279 0.0058,0.012 0.02204,0.0161 0.02795,0.0279 0.0041,0.008 -0.0066,0.0214 0,0.0279 0.0066,0.007 0.02135,-0.007 0.02795,0 0.0066,0.007 -0.0066,0.0214 0,0.0279 0.0066,0.007 0.02136,-0.007 0.02795,0 0.01318,0.0131 -0.0084,0.0392 0,0.0559 0.0058,0.012 0.02206,0.0161 0.02795,0.0279 0.0084,0.0166 -0.0058,0.0382 0,0.0559 0.0066,0.0197 0.0164,0.0386 0.02795,0.0559 0.0073,0.0112 0.02378,0.0155 0.02795,0.0279 0.0058,0.0177 -0.0058,0.0382 0,0.0559 0.0084,0.025 0.04411,0.0324 0.05589,0.0559 0.0055,0.0112 -0.0057,0.0781 0,0.084 0.0066,0.007 0.02135,-0.007 0.02795,0 0.0066,0.007 -0.0066,0.0214 0,0.0279 0.0066,0.007 0.02135,-0.007 0.02795,0 0.0086,0.008 -0.0086,0.13108 0,0.13973 0.0066,0.007 0.02135,-0.007 0.02795,0 0.0066,0.007 0,0.0186 0,0.0279 v 0.16766 c 0,0.0112 -0.0011,0.11061 0,0.11174 0.0066,0.007 0.02136,-0.007 0.02795,0 0.0013,10e-4 0,0.12654 0,0.13972 0,0.0101 -0.0066,0.0214 0,0.0279 0.0066,0.007 0.02135,-0.007 0.02795,0 0.0066,0.007 0,0.0186 0,0.0279 v 0.0279 c 0,0.0654 -0.0066,-0.0131 0.02795,0.0559 0.0075,0.0151 0.08126,0.11638 0.08892,0.12408 0.0066,0.007 0.277981,-3.95449 0.287302,-3.95449"
       id="path4680"
       inkscape:connector-curvature="0"
       sodipodi:nodetypes="ccccccccccccccccccccccccscccccccccccscccccccccccsccsccccsccccccssccccccccccccccccccccccsccscssccccccccccccccccccccccccccscccccccccccccsccccccccccccccccccccccccccccccsccccscccccscccscccccccccccccccccsscccccccccscccsccccscsccssccccssccccsccccccccccccccccccccccccccccccccccccccccccccccccccccccccccccccccccccccccscccccsccccccccccccccccccccccccccssccssccscccsccsccccccccccccccccccccccccccccccccscccccccccccccccccccccccccccccccccccccccccccccccccscccccccccccccccccccccccccccccccccccccccccccccccccccccccccccccscsccccccccccccccccccccccccccsccccccccccccscccccccccccccccccccccccccccccccccccccssccsccssccc" />
    <path
       style="fill:#96b760;fill-opacity:1;stroke:#96b760;stroke-width:0.31616211;stroke-linecap:round;stroke-linejoin:miter;stroke-miterlimit:4;stroke-dasharray:none;stroke-opacity:1"
       d="m 1.8047993,296.46238 6.1206849,-0.4007 0.1086808,-0.68454 c 0.00418,-0.0263 -0.019759,-0.38611 -0.019759,-0.38611 0.00722,-0.0289 -0.074595,-0.30754 -0.06876,-0.3367 0.00782,-0.0392 -0.00968,-0.081 0,-0.11976 0.00456,-0.0183 0.03397,-0.0221 0.039922,-0.0399 0.00842,-0.0252 -0.00842,-0.0546 0,-0.0798 0.011902,-0.0358 0.06301,-0.0463 0.079842,-0.0798 0.049163,-0.0984 -0.1158808,0.0361 0.039922,-0.11974 0.0094,-0.0101 0.030513,0.0101 0.039922,0 0.018818,-0.0188 -0.011902,-0.056 0,-0.0798 0.00842,-0.0168 0.031506,-0.0231 0.039922,-0.0399 0.011902,-0.0238 -0.018818,-0.0611 0,-0.0798 0.0094,-0.0101 0.030513,0.0101 0.039922,0 0.018817,-0.0187 -0.018817,-0.0611 0,-0.0798 0.00941,-0.0101 0.030517,0.0101 0.03992,0 0.018817,-0.0187 -0.018817,-0.0611 0,-0.0798 0.00941,-0.0101 0.030517,0.0101 0.03992,0 0.00941,-0.0101 0,-0.0267 0,-0.0399 0.013303,0 0.030517,0.0101 0.03992,0 0.01996,-0.0199 -0.01996,-0.0997 0,-0.11977 0.00941,-0.0101 0.030517,0.0101 0.03992,0 0.018817,-0.0189 -0.018817,-0.0611 0,-0.0798 0.00941,-0.0101 0.030517,0.0101 0.03992,0 0.018817,-0.0189 -0.018817,-0.0611 0,-0.0798 0.00941,-0.0101 0.030517,0.0101 0.03992,0 0.00941,-0.0101 -0.00594,-0.0281 0,-0.0399 0.00841,-0.0168 0.031503,-0.0231 0.03992,-0.0399 0.011902,-0.0238 -0.018817,-0.0611 0,-0.0798 0.00941,-0.0101 0.030517,0.0101 0.03992,0 0.00941,-0.0101 -0.00594,-0.0279 0,-0.0399 0.00841,-0.0168 0.031503,-0.0231 0.03992,-0.0399 0.00594,-0.012 -0.00594,-0.0279 0,-0.0399 0.016833,-0.0337 0.063007,-0.0463 0.07984,-0.0798 0.011947,-0.0238 -0.011947,-0.056 0,-0.0798 0.00841,-0.0168 0.031515,-0.0231 0.03992,-0.0399 0.011947,-0.0238 -0.018817,-0.0611 0,-0.0798 0.00941,-0.0101 0.030506,0.0101 0.03992,0 0.018817,-0.0187 -0.011947,-0.056 0,-0.0798 0.083068,-0.16614 -0.0028,0.0427 0.079851,-0.0399 0.018817,-0.0188 -0.018817,-0.0611 0,-0.0798 0.00941,-0.0101 0.030506,0.0101 0.03992,0 0.00818,-0.008 -0.00785,-0.104 0,-0.11975 0.00841,-0.0168 0.031515,-0.0231 0.03992,-0.0399 0.00605,-0.0122 0,-0.10176 0,-0.11976 V 292.22 291.90063 c 0,-0.021 0.00527,-0.14919 0,-0.15968 -0.00841,-0.0168 -0.031503,-0.0231 -0.03992,-0.0399 -0.00594,-0.012 0.00941,-0.0305 0,-0.0399 -0.00941,-0.0101 -0.030506,0.0101 -0.03992,0 -0.1558025,-0.15581 0.00919,-0.0214 -0.03992,-0.11978 -0.016833,-0.0337 -0.063007,-0.0462 -0.079851,-0.0798 -0.00594,-0.012 0,-0.0267 0,-0.0399 -0.013314,-0.0267 -0.023412,-0.055 -0.03992,-0.0798 -0.022964,-0.0344 -0.088582,-0.0885 -0.1197647,-0.11976 -0.013303,-0.0132 -0.031503,-0.0231 -0.03992,-0.0399 -0.00594,-0.012 0.00941,-0.0305 0,-0.0399 -0.00941,-0.0101 -0.030517,0.0101 -0.03992,0 -0.00941,-0.0101 0.00941,-0.0305 0,-0.0399 -0.082597,-0.0826 0.00325,0.12623 -0.07984,-0.0399 0,-0.10647 0.013303,0.0132 -0.03992,-0.0399 -0.00941,-0.0101 0.00941,-0.0305 0,-0.0399 -0.00941,-0.0101 -0.030517,0.0101 -0.03992,0 -0.00941,-0.0101 0.00941,-0.0305 0,-0.0399 -0.082597,-0.0826 0.00325,0.12623 -0.07984,-0.0399 -0.00594,-0.012 0,-0.0267 0,-0.0399 -0.013303,-0.0132 -0.031504,-0.0231 -0.039921,-0.0399 -0.00595,-0.012 0.0094,-0.0305 0,-0.0399 -0.0094,-0.0101 -0.030513,0.0101 -0.039922,0 -0.018818,-0.0188 0.011902,-0.056 0,-0.0798 -0.00842,-0.0168 -0.03397,-0.0221 -0.039922,-0.0399 -0.00842,-0.0252 0.011902,-0.056 0,-0.0798 -0.00595,-0.012 -0.030513,0.0101 -0.039922,0 -0.018818,-0.0187 0.011902,-0.056 0,-0.0798 -0.00842,-0.0168 -0.031506,-0.0231 -0.039922,-0.0399 -0.011902,-0.0238 0.011902,-0.056 0,-0.0798 -0.00842,-0.0168 -0.031506,-0.0231 -0.039922,-0.0399 -0.00595,-0.012 0.00595,-0.0279 0,-0.0399 -0.00842,-0.0168 -0.03397,-0.0221 -0.039922,-0.0399 -0.00842,-0.0252 0.011902,-0.056 0,-0.0798 -0.00595,-0.012 -0.030513,0.0101 -0.039922,0 -3.8e-5,-4e-5 6.03e-5,-0.11958 0,-0.11976 -0.00595,-0.0178 -0.029482,-0.0242 -0.039922,-0.0399 -0.016507,-0.0248 -0.030513,-0.0517 -0.039922,-0.0798 -0.0042,-0.0127 0.00323,-0.027 0,-0.0399 -0.01021,-0.0409 -0.031668,-0.0784 -0.039922,-0.11977 -0.00522,-0.026 0.00646,-0.054 0,-0.0798 0.024063,-0.0723 -0.06467,-0.0742 -0.079842,-0.11976 -0.00842,-0.0252 0,-0.0534 0,-0.0798 0,-0.0132 0.00595,-0.0281 0,-0.0399 -0.00842,-0.0168 -0.03397,-0.0221 -0.039922,-0.0399 -0.00842,-0.0252 0.00842,-0.0546 0,-0.0798 -0.00595,-0.0178 -0.033971,-0.0221 -0.039922,-0.0399 -0.00842,-0.0252 0.00646,-0.054 0,-0.0798 -0.00722,-0.0289 -0.032704,-0.051 -0.039922,-0.0798 -0.00646,-0.0258 0,-0.0532 0,-0.0798 v -0.23952 c 0,-0.0132 0.0042,-0.0272 0,-0.0399 -0.018818,-0.0564 -0.06541,-0.10187 -0.079842,-0.15968 -0.00646,-0.0258 0,-0.0531 0,-0.0798 v -0.0798 -0.23953 -0.47905 c 0,-0.0415 -0.00786,-0.20812 0,-0.23953 0.014433,-0.0577 0.068171,-0.10132 0.079842,-0.15969 0.00782,-0.0392 -0.00782,-0.0807 0,-0.11976 0.01183,-0.0592 0.1041384,-0.17702 0.1197644,-0.23954 0.00646,-0.0258 -0.00646,-0.054 0,-0.0798 0.048194,-0.19279 0.018974,0.002 0.079842,-0.11977 0.00595,-0.012 -0.00323,-0.027 0,-0.0399 0.01021,-0.0409 0.0211,-0.0822 0.039922,-0.11977 0.00842,-0.0168 0.031506,-0.0231 0.039922,-0.0399 0.00595,-0.012 0,-0.0267 0,-0.0399 0.013307,-0.0267 0.023415,-0.055 0.039922,-0.0798 0.010445,-0.0157 0.031506,-0.0231 0.039922,-0.0399 0.00595,-0.012 0,-0.0267 0,-0.0399 0.013307,-0.0267 0.023415,-0.0551 0.039922,-0.0798 0.010445,-0.0157 0.029482,-0.0242 0.039922,-0.0399 0.016507,-0.0248 0.023415,-0.055 0.039922,-0.0798 0.010445,-0.0157 0.031506,-0.0231 0.039922,-0.0399 0.00595,-0.012 -0.0094,-0.0305 0,-0.0399 0.0094,-0.0101 0.030513,0.0101 0.039922,0 0.018818,-0.0188 -0.011902,-0.056 0,-0.0798 0.091352,-0.1827 -0.016545,0.16941 0.079842,-0.11976 0.039617,-0.11889 -0.094528,0.0818 0.03992,-0.11977 0.010423,-0.0157 0.035359,-0.0216 0.03992,-0.0399 0.00964,-0.0387 -0.00784,-0.0807 0,-0.11976 0.00997,-0.0499 0.1063339,-0.17273 0.1197647,-0.19961 0.018817,-0.0377 0.019041,-0.0833 0.03992,-0.11976 0.1087323,-0.19027 0.1108168,-0.125 0.2395282,-0.27945 0.1037451,-0.1245 0.04354,-0.10669 0.1596858,-0.19961 0.037466,-0.03 0.085836,-0.0458 0.1197647,-0.0798 0.021047,-0.0211 0.023412,-0.0551 0.03992,-0.0798 0.020879,-0.0313 0.058972,-0.0485 0.07984,-0.0798 0.016508,-0.0248 0.018884,-0.0588 0.03992,-0.0798 0.00941,-0.0101 0.028018,0.006 0.03992,0 0.1661434,-0.0831 -0.042666,0.002 0.03992,-0.0798 0.00941,-0.0101 0.030517,0.0101 0.03992,0 0.00941,-0.0101 -0.00594,-0.0281 0,-0.0399 0.016833,-0.0337 0.063007,-0.0463 0.079851,-0.0798 0.00594,-0.012 -0.00594,-0.0279 0,-0.0399 0.00841,-0.0168 0.029475,-0.0242 0.03992,-0.0399 0.016508,-0.0248 0.024611,-0.0543 0.03992,-0.0798 0.02469,-0.0411 0.053223,-0.0798 0.07984,-0.11977 0.026606,-0.0399 0.049121,-0.0829 0.07984,-0.11977 0.036143,-0.0434 0.082586,-0.0773 0.1197647,-0.11976 0.056115,-0.0642 0.1073762,-0.13235 0.1596869,-0.19962 0.04085,-0.0524 0.072712,-0.11268 0.1197636,-0.15968 0.033924,-0.0339 0.082911,-0.0491 0.1197647,-0.0798 0.07229,-0.0602 0.126132,-0.14083 0.199607,-0.19961 0.03747,-0.03 0.08585,-0.0458 0.119766,-0.0798 0.02105,-0.0211 0.02342,-0.055 0.03992,-0.0798 0.01042,-0.0157 0.02947,-0.0242 0.03992,-0.0399 0.01651,-0.0248 0.01888,-0.0588 0.03992,-0.0798 0.0094,-0.0101 0.03052,0.0101 0.03992,0 0.0094,-0.0101 -0.0094,-0.0305 0,-0.0399 0.0094,-0.0101 0.03051,0.0101 0.03992,0 0.09807,-0.0142 0.01659,-0.0847 0.03992,-0.11977 0.181734,-0.18173 0.0211,0.0165 0.07984,-0.15968 0.0059,-0.0178 0.02948,-0.0243 0.03992,-0.0399 0.01651,-0.0248 0.02207,-0.056 0.03992,-0.0798 0.02258,-0.0301 0.05633,-0.0504 0.07984,-0.0798 0.02997,-0.0375 0.04986,-0.0824 0.07984,-0.11976 0.02351,-0.0294 0.05726,-0.0498 0.07985,-0.0798 0.01785,-0.0238 0.02207,-0.056 0.03992,-0.0798 0.02258,-0.0301 0.06047,-0.0475 0.07985,-0.0798 0.02165,-0.0361 0.01363,-0.0869 0.03992,-0.11977 0.02997,-0.0375 0.0823,-0.0499 0.119765,-0.0798 0.05878,-0.0471 0.09514,-0.12096 0.159687,-0.15968 0.03609,-0.0216 0.09,-0.0112 0.119764,-0.0399 0.02975,-0.0297 0.0102,-0.09 0.03992,-0.11978 0.01882,-0.0187 0.0546,0.008 0.07985,0 0.03571,-0.012 0.04617,-0.063 0.07985,-0.0798 0.01195,-0.006 0.03051,0.0101 0.03992,0 0.0094,-0.0101 -0.0094,-0.0305 0,-0.0399 0.0094,-0.0101 0.03051,0.0101 0.03992,0 0.0094,-0.0101 -0.0059,-0.0279 0,-0.0399 0.0084,-0.0168 0.03151,-0.0231 0.03992,-0.0399 0.01195,-0.0238 -0.01195,-0.056 0,-0.0798 0.0084,-0.0168 0.03152,-0.0231 0.03992,-0.0399 0.0059,-0.012 -0.0041,-0.0272 0,-0.0399 0.113088,-0.2262 -0.01488,0.0595 0.03992,-0.1597 0.0072,-0.0289 0.0327,-0.051 0.03992,-0.0798 0.01733,-0.0693 -0.01733,-0.1702 0,-0.23952 0.0072,-0.0289 0.02661,-0.0532 0.03992,-0.0798 0,-0.0399 -0.0078,-0.0807 0,-0.11976 0.0058,-0.0291 0.0327,-0.051 0.03992,-0.0798 0.0096,-0.0387 0,-0.0798 0,-0.11976 v -0.31938 c 0,-0.027 0.0061,-0.26127 0,-0.27945 -0.0059,-0.0178 -0.03152,-0.0231 -0.03992,-0.0399 -0.0059,-0.012 0,-0.0267 0,-0.0399 v -0.11977 c 0,-0.0267 0.0065,-0.054 0,-0.0798 -0.0072,-0.0289 -0.0327,-0.051 -0.03992,-0.0798 -0.0065,-0.0258 0.0065,-0.054 0,-0.0798 -0.0072,-0.0289 -0.0327,-0.051 -0.03992,-0.0798 -0.07109,-0.28437 0.120823,0.20225 -0.03992,-0.1996 -0.02211,-0.0553 -0.06542,-0.10188 -0.07985,-0.15969 -0.0065,-0.0258 0.0065,-0.054 0,-0.0798 -0.0072,-0.0289 -0.02887,-0.0522 -0.03992,-0.0798 -0.01563,-0.0391 -0.0243,-0.0807 -0.03992,-0.11977 -0.01098,-0.0276 -0.0327,-0.051 -0.03992,-0.0798 -0.0065,-0.0258 0,-0.0531 0,-0.0798 0,-0.0132 0.0059,-0.0279 0,-0.0399 -0.0084,-0.0168 -0.03152,-0.0231 -0.03992,-0.0399 -0.0059,-0.012 0.0059,-0.0279 0,-0.0399 -0.0084,-0.0168 -0.03152,-0.0231 -0.03992,-0.0399 -0.01597,-0.0319 0.01596,-0.0879 0,-0.11975 -0.0084,-0.0168 -0.03397,-0.0221 -0.03992,-0.0399 -0.0084,-0.0252 0,-0.0531 0,-0.0798 0,-0.0132 0.0059,-0.0279 0,-0.0399 -0.06087,-0.12174 -0.03165,0.073 -0.07984,-0.11976 -0.01291,-0.0517 0.0129,-0.10803 0,-0.15969 -0.01444,-0.0577 -0.05774,-0.10445 -0.07985,-0.15968 -0.160743,-0.40187 0.03118,0.0847 -0.03992,-0.19961 -0.01563,-0.0625 -0.107925,-0.18038 -0.119764,-0.23953 -0.0078,-0.0392 0.0078,-0.0807 0,-0.11977 -0.01183,-0.0592 -0.104138,-0.17702 -0.119765,-0.23952 -0.0065,-0.0258 0.0084,-0.0546 0,-0.0798 -0.01195,-0.0358 -0.06795,-0.044 -0.07985,-0.0798 -0.0084,-0.0252 0.0084,-0.0546 0,-0.0798 -0.0059,-0.0178 -0.02661,-0.0267 -0.03992,-0.0399 -0.01331,-0.0267 -0.0327,-0.051 -0.03992,-0.0798 -0.0065,-0.0258 0.0099,-0.055 0,-0.0798 -0.01782,-0.0446 -0.05516,-0.0787 -0.07985,-0.11976 -0.03471,-0.0578 -0.09478,-0.17708 -0.119764,-0.23953 -0.01563,-0.0391 -0.0243,-0.0807 -0.03992,-0.11977 -0.03271,-0.0817 -0.09192,-0.15602 -0.119765,-0.23952 -0.0041,-0.0127 0.0059,-0.0281 0,-0.0399 -0.02146,-0.0429 -0.05839,-0.0769 -0.07985,-0.11976 -0.0059,-0.012 0.0059,-0.028 0,-0.0399 -0.08307,-0.16614 0.0028,0.0427 -0.07984,-0.0399 -0.0094,-0.0101 0.0059,-0.0279 0,-0.0399 -0.0084,-0.0168 -0.03152,-0.0231 -0.03992,-0.0399 -0.0059,-0.012 0.0094,-0.0305 0,-0.0399 -0.02105,-0.0211 -0.05508,-0.0234 -0.07985,-0.0399 -0.0166,-0.0112 -0.152548,-0.1454 -0.159686,-0.15968 -0.0059,-0.012 0.0094,-0.0305 0,-0.0399 -0.0094,-0.0101 -0.03051,0.0101 -0.03992,0 -0.0094,-0.0101 0.0094,-0.0305 0,-0.0399 -0.0094,-0.0101 -0.03051,0.0101 -0.03992,0 -0.02105,-0.0211 -0.02207,-0.056 -0.03992,-0.0798 -0.02258,-0.0301 -0.05726,-0.0498 -0.07985,-0.0798 -0.01785,-0.0238 -0.02341,-0.055 -0.03992,-0.0798 -0.01042,-0.0157 -0.029475,-0.0242 -0.03992,-0.0399 -0.016508,-0.0248 -0.022067,-0.056 -0.03992,-0.0798 -0.08634,-0.11506 -0.057683,-0.0518 -0.1596858,-0.11975 -0.046969,-0.0313 -0.074606,-0.086 -0.1197646,-0.11977 -0.047608,-0.0358 -0.1101781,-0.0469 -0.1596847,-0.0798 -0.099296,-0.0662 -0.0046,-0.0101 -0.03992,-0.0798 -0.00841,-0.0168 -0.026606,-0.0267 -0.03992,-0.0399 -0.013314,-0.0132 -0.023087,-0.0315 -0.03992,-0.0399 -0.011947,-0.006 -0.030517,0.0101 -0.03992,0 -0.00941,-0.0101 0.00941,-0.0305 0,-0.0399 -0.00941,-0.0101 -0.030506,0.0101 -0.03992,0 -0.00941,-0.0101 0.00941,-0.0305 0,-0.0399 -0.021047,-0.0211 -0.058804,-0.0188 -0.079851,-0.0399 -0.00941,-0.0101 0.00594,-0.0279 0,-0.0399 -0.017696,-0.0354 -0.09553,-0.0834 -0.1197646,-0.11976 -0.016497,-0.0248 -0.018884,-0.0588 -0.03992,-0.0798 -0.021047,-0.0211 -0.055083,-0.0234 -0.079851,-0.0399 -0.031324,-0.021 -0.046185,-0.063 -0.079851,-0.0798 -0.1298422,-0.0649 -0.094959,-0.0101 -0.199607,-0.0798 -0.015656,-0.0112 -0.024252,-0.0295 -0.03992,-0.0399 -0.024757,-0.0165 -0.055083,-0.0234 -0.07984,-0.0399 -0.031313,-0.0209 -0.046174,-0.063 -0.07984,-0.0798 -0.011902,-0.006 -0.028018,0.006 -0.03992,0 -0.033666,-0.0168 -0.046174,-0.063 -0.07984,-0.0798 -0.011902,-0.006 -0.030517,0.0101 -0.03992,0 -0.00941,-0.0101 0.00594,-0.028 0,-0.0399 -0.00527,-0.0112 -0.1091694,-0.11447 -0.1197647,-0.11976 -0.011902,-0.006 -0.030517,0.0101 -0.039922,0 -0.0094,-0.0101 0.00595,-0.0281 0,-0.0399 -0.00529,-0.0112 -0.1091649,-0.11447 -0.1197647,-0.11977 -0.011902,-0.006 -0.030513,0.0101 -0.039922,0 -0.0094,-0.0101 0.00595,-0.0279 0,-0.0399 -0.00842,-0.0168 -0.026615,-0.0267 -0.039922,-0.0399 -0.013307,-0.0132 -0.023089,-0.0315 -0.039922,-0.0399 -0.031356,-0.0297 -0.052147,-0.0259 -0.052147,-0.0259 -0.0094,-0.0101 -0.030513,0.0101 -0.039922,0 -0.018818,-0.0188 0.011902,-0.056 0,-0.0798 -0.00842,-0.0168 -0.039922,-0.0399 -0.039922,-0.0399 -0.016685,-0.0307 -4.3244892,-1.4842 -4.3244892,-1.4842 l -1.684363,25.31224"
       id="path3715"
       inkscape:connector-curvature="0"
       sodipodi:nodetypes="ccsccccccccccccccccccccccccccccccccccccccccccscscsccccccccccccccccccccccccccccccccccccccccsccccccssccsccsccccccccccccccccccccccccccccccccccccccccccccccccccccccccccccccccccccccccccccccccccccssccssccccccccccsccccccssscccccccccccccccccsscccccccccccccccccccsccccccccsccccccccccccccccsccccccc" />
    <path
       style="fill:#efe7b8;fill-opacity:1;stroke:#efe7b8;stroke-width:0.31616211;stroke-linecap:round;stroke-linejoin:miter;stroke-miterlimit:4;stroke-dasharray:none;stroke-opacity:1"
       d="m 1.9917799,290.97042 c 0.068983,0.0861 0.9991778,-13.66298 0.9991778,-13.66298 0.028578,0.007 0.2298406,0.0687 0.2571904,0.0797 0.038678,0.0155 0.078147,0.0294 0.1185611,0.0396 0.065167,0.0163 0.1320293,0.025 0.1976014,0.0396 0.053022,0.012 0.104311,0.0319 0.1580811,0.0396 0.039123,0.006 0.079579,-0.006 0.1185611,0 0.041091,0.007 0.078505,0.0281 0.118561,0.0396 0.052226,0.0149 0.104821,0.0289 0.1580812,0.0396 0.1207571,0.0241 0.3998781,0.0638 0.5137634,0.079 0.1052759,0.014 0.2120169,0.0186 0.316162,0.0396 0.094041,0.0187 0.1831938,0.0575 0.2766418,0.079 0.1084017,0.025 0.3219913,0.0452 0.434723,0.079 0.067949,0.0204 0.1287784,0.0617 0.1976013,0.079 0.03834,0.0101 0.081068,-0.0125 0.118561,0 0.04506,0.015 0.076077,0.0578 0.1185611,0.079 0.03726,0.0186 0.079041,0.0263 0.1185612,0.0396 0.03952,0.0131 0.077712,0.0313 0.1185611,0.0396 0.025834,0.004 0.053481,-0.006 0.079041,0 0.057155,0.0143 0.1021907,0.0603 0.1580811,0.079 0.012498,0.003 0.027023,-0.003 0.03952,0 0.1653433,-0.0716 0.045714,0.0624 0.079041,0.0791 0.023567,0.012 0.053205,-0.004 0.079041,0 0.040849,0.008 0.079882,0.024 0.1185611,0.0396 0.0547,0.0218 0.1009276,0.0648 0.1580811,0.0791 0.025559,0.006 0.053481,-0.006 0.079041,0 0.028578,0.007 0.052694,0.0262 0.079041,0.0396 0.03952,0.0131 0.077712,0.0313 0.118561,0.0396 0.025837,0.004 0.055476,-0.012 0.079041,0 0.011782,0.006 -0.00589,0.0277 0,0.0396 0.00833,0.0166 0.026346,0.0263 0.03952,0.0396 0.013174,0.0131 0.022856,0.0312 0.03952,0.0396 0.011782,0.006 0.030206,-0.0101 0.03952,0 0.00613,0.006 -0.00512,0.1031 0,0.11853 0.018632,0.0559 0.064752,0.10098 0.079041,0.15808 0.00639,0.0255 -0.00639,0.0536 0,0.079 0.00715,0.0286 0.033743,0.0502 0.03952,0.079 0.00774,0.0388 -0.00776,0.0798 0,0.11854 0.011555,0.0577 0.064752,0.10098 0.079041,0.1581 0.00639,0.0256 -0.00639,0.0536 0,0.079 0.00715,0.0286 0.028581,0.0518 0.03952,0.079 0.015474,0.0387 0.024047,0.0798 0.03952,0.11854 0.010938,0.0274 0.032375,0.0504 0.03952,0.079 0.00639,0.0256 -0.00639,0.0536 0,0.079 0.00715,0.0286 0.032375,0.0504 0.03952,0.079 0.00639,0.0255 -0.00639,0.0536 0,0.079 0.00715,0.0286 0.033743,0.0502 0.03952,0.079 0.00774,0.0387 -0.0065,0.0796 0,0.11854 0.018724,0.11231 0.042182,0.10557 0.079041,0.1976 0.1591285,0.39782 -0.030857,-0.0838 0.03952,0.19759 0.00715,0.0286 0.028581,0.0518 0.03952,0.079 0.015474,0.0387 0.020889,0.0813 0.03952,0.11853 0.00833,0.0166 0.033629,0.0219 0.03952,0.0396 0.00833,0.025 -0.00639,0.0536 0,0.0791 0.047711,0.19082 0.01878,-0.002 0.079041,0.11854 0.00594,0.012 -0.00415,0.027 0,0.0396 0.052696,0.15808 0.037925,-0.008 0.079044,0.19759 0.00516,0.0258 -0.00639,0.0536 0,0.079 0.00717,0.0286 0.030203,0.0511 0.039517,0.079 0.00415,0.0126 -0.00415,0.027 0,0.0396 0.0093,0.0279 0.032378,0.0504 0.039517,0.079 0.00751,0.03 0,0.16451 0,0.19761 0,0.0715 0.00885,0.21454 0,0.27664 -0.00773,0.0538 -0.030596,0.10445 -0.039517,0.15808 -0.00247,0.0148 0.00258,0.15282 0,0.15808 -0.00594,0.012 -0.026348,0 -0.039517,0 -0.01318,0.0265 -0.032378,0.0504 -0.039517,0.079 -0.00639,0.0256 0,0.0527 0,0.079 0,0.0131 0.00594,0.0277 0,0.0396 -0.00829,0.0166 -0.03119,0.0229 -0.039517,0.0396 -0.00594,0.012 0.0093,0.0303 0,0.0396 -0.0093,0.0101 -0.030203,-0.0101 -0.039517,0 -0.1542376,0.15425 0.00919,0.0213 -0.039521,0.11854 -0.016665,0.0333 -0.062377,0.0457 -0.079041,0.079 -0.0059,0.012 0.00589,0.0277 0,0.0396 -0.00833,0.0166 -0.029186,0.024 -0.03952,0.0396 -0.01634,0.0246 -0.018691,0.0582 -0.03952,0.079 -0.00931,0.0101 -0.030206,-0.0101 -0.03952,0 -0.00931,0.0101 0,0.0263 0,0.0396 -0.013174,0.0263 -0.018691,0.0582 -0.03952,0.079 -0.00931,0.0101 -0.027737,-0.006 -0.03952,0 -0.016665,0.008 -0.026346,0.0263 -0.03952,0.0396 -0.013174,0.0131 -0.029185,0.024 -0.03952,0.0396 -0.08707,0.0199 -0.020889,0.0812 -0.03952,0.11854 -0.017516,0.035 -0.094578,0.0826 -0.1185611,0.11854 -0.01634,0.0245 -0.026346,0.0527 -0.03952,0.079 -0.026346,0.0263 -0.056685,0.0492 -0.079041,0.079 -0.035348,0.0471 -0.043694,0.11095 -0.079041,0.15808 -0.022356,0.0297 -0.056685,0.0492 -0.079041,0.079 -0.017673,0.0235 -0.021847,0.0555 -0.03952,0.079 -0.022356,0.0298 -0.05987,0.0471 -0.079041,0.079 -7.903e-4,0.001 -0.076991,0.232 -0.079041,0.23712 -0.054663,0.13665 -0.020615,0.0275 -0.1185611,0.15808 -0.017673,0.0235 -0.024363,0.0538 -0.03952,0.079 -0.024436,0.0408 -0.054603,0.0778 -0.079041,0.11854 -0.015157,0.0252 -0.024363,0.0538 -0.03952,0.079 -0.024436,0.0408 -0.057799,0.0761 -0.079041,0.11854 -0.037261,0.0745 -0.037704,0.16478 -0.079041,0.23712 -0.032679,0.0573 -0.082024,0.10322 -0.118561,0.15808 -0.01634,0.0245 -0.024368,0.0538 -0.03952,0.079 -0.024436,0.0408 -0.052694,0.079 -0.079041,0.11854 -0.026346,0.0396 -0.049369,0.0815 -0.079041,0.11854 -0.023276,0.029 -0.05987,0.0471 -0.079041,0.079 -0.021433,0.0358 -0.024047,0.0798 -0.03952,0.11853 -0.010938,0.0274 -0.024366,0.0538 -0.03952,0.079 -0.024436,0.0408 -0.061401,0.0744 -0.079041,0.11853 -0.085555,0.21389 0.1074344,-0.0624 -0.03952,0.15808 -0.023983,0.036 -0.1010464,0.0835 -0.118561,0.11854 -0.00589,0.012 0.00589,0.0277 0,0.0396 -0.06026,0.12052 -0.031332,-0.0723 -0.079041,0.11854 -0.00639,0.0256 0.00833,0.054 0,0.079 -0.00589,0.0177 -0.029185,0.024 -0.03952,0.0396 -0.01634,0.0246 -0.028581,0.0518 -0.03952,0.079 -0.03703,0.0926 -0.06223,0.19215 -0.1185611,0.27664 -0.1111575,0.16674 0.067824,-0.21468 -0.118561,0.15809 -0.00589,0.012 0,0.0264 0,0.0396 -0.013174,0.0265 -0.021847,0.0555 -0.03952,0.079 -0.022356,0.0297 -0.05987,0.0471 -0.079041,0.079 -0.021433,0.0358 -0.018087,0.0828 -0.03952,0.11854 -0.019169,0.0319 -0.062377,0.0457 -0.079041,0.079 -0.011782,0.0235 0.00639,0.0536 0,0.079 -0.00715,0.0286 -0.028581,0.0518 -0.03952,0.079 -0.030943,0.0773 -0.048098,0.15976 -0.079041,0.23713 -0.021882,0.0547 -0.052693,0.10534 -0.079041,0.15807 -0.013174,0.0263 -0.032375,0.0504 -0.03952,0.079 -0.00639,0.0256 0.00978,0.0546 0,0.079 -0.028334,0.0708 -0.09938,0.12088 -0.118561,0.19761 -0.00639,0.0256 0.00639,0.0536 0,0.079 -0.014288,0.0572 -0.057161,0.10333 -0.079041,0.15809 -0.1452361,0.36309 0.03458,-0.0123 -0.079041,0.15808 -0.01634,0.0245 -0.032375,0.0504 -0.03952,0.079 -0.02087,0.0835 0.035115,0.0834 -0.03952,0.15808 -0.00931,0.0101 -0.030206,-0.0101 -0.03952,0 -0.00931,0.0101 0.00589,0.0277 0,0.0396 -0.00525,0.0112 -0.1080689,0.11328 -0.118561,0.11854 -0.01049,0.004 -0.2691327,0.002 -0.2766419,0 -0.035348,-0.012 -0.045714,-0.0624 -0.079041,-0.079 -0.010221,-0.004 -0.2091096,0 -0.2371217,0 -0.013174,0 -0.030206,-0.0101 -0.03952,0 -0.00931,0.0101 0.00931,0.0303 0,0.0396 -0.00931,0.0101 -0.027737,-0.006 -0.03952,0 -0.033327,0.0166 -0.045714,0.0624 -0.079041,0.079 -0.011782,0.006 -0.030206,-0.0101 -0.03952,0 -0.00931,0.0101 0.0059,0.0277 0,0.0396 -0.00833,0.0166 -0.026346,0.0263 -0.03952,0.0396 -0.013174,0.0131 -0.022858,0.0312 -0.03952,0.0396 -0.011782,0.006 -0.027737,-0.006 -0.03952,0 -0.016661,0.008 -0.026346,0.0262 -0.03952,0.0396 -0.013174,0.0131 -0.03119,0.0229 -0.03952,0.0396 -0.0059,0.012 0.00589,0.0277 0,0.0396 -0.019445,0.039 -0.1386365,0.11925 -0.1580811,0.1581 -0.0059,0.012 0.00931,0.0303 0,0.0396 -0.00931,0.0101 -0.030206,-0.0101 -0.03952,0 -0.00931,0.0101 0.00931,0.0303 0,0.0396 -0.00931,0.0101 -0.030206,-0.0101 -0.03952,0 -0.00931,0.0101 0.0059,0.0277 0,0.0396 -0.00833,0.0167 -0.03119,0.0229 -0.03952,0.0396 -0.00589,0.012 0.0059,0.0277 0,0.0396 -0.00833,0.0167 -0.026346,0.0262 -0.03952,0.0396 -0.026346,0.0263 -0.052693,0.0527 -0.079041,0.079 -0.03952,0.0396 -0.073849,0.085 -0.1185611,0.11854 -0.023567,0.0177 -0.058211,0.0186 -0.079041,0.0396 -0.02083,0.0208 -0.018691,0.0582 -0.03952,0.079 -0.020829,0.0208 -0.054531,0.0232 -0.079041,0.0396 -0.015502,0.0112 -0.022858,0.0312 -0.03952,0.0396 -0.011782,0.006 -0.030206,-0.0101 -0.03952,0 -0.00931,0.0101 0.00931,0.0303 0,0.0396 -0.00931,0.0101 -0.030206,-0.0101 -0.03952,0 -0.00931,0.0101 0.00931,0.0303 0,0.0396 -0.00931,0.0101 -0.030206,-0.0101 -0.03952,0 -0.026346,0.0263 0.026346,0.0527 0,0.079 -0.00931,0.0101 -0.027737,-0.006 -0.03952,0 -0.164474,0.0823 0.042248,-0.002 -0.03952,0.079 -0.00931,0.0101 -0.030206,-0.0101 -0.03952,0 -0.026346,0.0264 0.026346,0.0527 0,0.0791 -0.00931,0.0101 -0.030206,-0.0101 -0.03952,0 -0.018632,0.0186 0.018632,0.0604 0,0.079 -0.081769,0.0817 0.00319,-0.12495 -0.079041,0.0396 -0.0059,0.012 0.00589,0.0277 0,0.0396 -0.00833,0.0166 -0.03119,0.0229 -0.03952,0.0396 -0.0059,0.012 0.00589,0.0277 0,0.0396 -0.016663,0.0334 -0.067258,0.0437 -0.079041,0.079 -0.00833,0.025 0.00639,0.0536 0,0.079 -0.01595,0.0638 -0.038868,0.0783 -0.079041,0.11853 -0.013174,0.0131 -0.03119,0.0229 -0.03952,0.0396 -0.00589,0.012 0.00931,0.0303 0,0.0396 -0.00931,0.0101 -0.030206,-0.0101 -0.03952,0 -0.00931,0.0101 0.00931,0.0303 0,0.0396 -0.1053869,0 0.013174,-0.0131 -0.03952,0.0396 -0.018632,0.0186 -0.06041,-0.0186 -0.079041,0 -0.00931,0.0101 0.00931,0.0303 0,0.0396 -0.00931,0.0101 -0.026346,0 -0.03952,0 -0.018634,0 -0.077089,0.0465 -0.077089,0.0465 0,0 0,-0.0131 0,0"
       id="path4678"
       inkscape:connector-curvature="0"
       sodipodi:nodetypes="cccccccccccccccccccccccccccccccccccccccccccccccccccccccccccccscccccscccccccccccccccccccccccccccccccccccccccccccccccccccccccccccccccccccccsccccccccccccccccccccccccsccccccccccccccccccccccccccccscc" />
    <path
       style="fill:#96b760;fill-opacity:1;stroke:#96b760;stroke-width:0.31616211;stroke-linecap:round;stroke-linejoin:bevel;stroke-miterlimit:4;stroke-dasharray:none;stroke-opacity:1;paint-order:stroke fill markers"
       d="m 20.839181,291.43646 c -0.03992,0.0531 -0.118658,0.0536 -0.158579,0.1067 0,0.0132 0.0059,0.0279 0,0.0399 -0.0084,0.0168 -0.02309,0.0315 -0.03992,0.0399 -0.01195,0.006 -0.03052,-0.0101 -0.03992,0 -0.0094,0.0101 0.0094,0.0305 0,0.0399 -0.0094,0.0101 -0.03051,-0.0101 -0.03992,0 -0.0094,0.0101 0.0094,0.0305 0,0.0399 -0.0094,0.0101 -0.03051,-0.0101 -0.03992,0 -0.0094,0.0101 0.0094,0.0305 0,0.0399 -0.155803,0.15581 -0.02144,-0.0101 -0.119764,0.0399 -0.182705,0.0913 0.169404,-0.0165 -0.119764,0.0798 -0.01262,0.004 -0.02662,0 -0.03992,0 -0.02662,0.0132 -0.05322,0.0267 -0.07985,0.0399 -0.05322,0.0267 -0.104428,0.0577 -0.159687,0.0798 -0.03907,0.0157 -0.08368,0.0183 -0.119763,0.0399 -0.03228,0.0194 -0.04413,0.0679 -0.07985,0.0798 -0.0505,0.0168 -0.106861,-0.007 -0.159686,0 -0.149346,0.0186 -0.146875,0.0467 -0.279451,0.0798 -0.06583,0.0165 -0.133072,0.0267 -0.199607,0.0399 -0.133071,0.0267 -0.265697,0.0556 -0.399215,0.0798 -0.07964,0.0145 -0.158986,0.0319 -0.239529,0.0399 -0.105931,0.0112 -0.213566,-0.012 -0.319372,0 -0.06744,0.007 -0.13209,0.0332 -0.199607,0.0399 -0.06621,0.007 -0.133072,0 -0.199607,0 H 17.28727 17.00782 16.9679 c -0.01331,0 -0.02802,0.006 -0.03992,0 -0.01683,-0.008 -0.02309,-0.0316 -0.03992,-0.0399 -0.0238,-0.012 -0.05771,0.0148 -0.07985,0 -0.01183,-0.008 -0.192656,-0.18801 -0.199606,-0.1996 -0.02165,-0.0361 -0.0243,-0.0807 -0.03992,-0.11976 -0.02211,-0.0553 -0.06542,-0.10187 -0.07985,-0.15969 -0.0065,-0.0258 0.0065,-0.054 0,-0.0798 -0.02895,-0.11579 -0.03116,-0.0467 -0.07985,-0.11976 -0.0165,-0.0248 -0.02341,-0.055 -0.03992,-0.0798 -0.02088,-0.0313 -0.06301,-0.0462 -0.07985,-0.0798 -0.0059,-0.012 0.0094,-0.0305 0,-0.0399 -0.0094,-0.0101 -0.03052,0.0101 -0.03992,0 -0.0094,-0.0101 0.0094,-0.0305 0,-0.0399 -0.0094,-0.0101 -0.03051,0.0101 -0.03992,0 -0.02105,-0.0211 -0.01888,-0.0588 -0.03992,-0.0798 -0.0094,-0.0101 -0.03052,0.0101 -0.03992,0 -0.0094,-0.0101 0.0059,-0.0279 0,-0.0399 -0.01683,-0.0337 -0.06301,-0.0462 -0.07985,-0.0798 -0.0059,-0.012 0.0059,-0.0279 0,-0.0399 -0.09135,-0.1827 0.01655,0.16941 -0.07984,-0.11975 -0.0041,-0.0127 0.0059,-0.0279 0,-0.0399 -0.06087,-0.12173 -0.03164,0.073 -0.07985,-0.11976 -0.0065,-0.0258 0.0084,-0.0546 0,-0.0798 -0.0059,-0.0178 -0.0266,-0.0267 -0.03992,-0.0399 -0.01331,-0.0267 -0.0327,-0.051 -0.03992,-0.0798 -0.0065,-0.0258 0.01195,-0.056 0,-0.0798 -0.0059,-0.012 -0.03052,0.0101 -0.03992,0 -0.155802,-0.15579 0.0092,-0.0214 -0.03992,-0.11975 -0.0084,-0.0168 -0.03151,-0.0231 -0.03992,-0.0399 -0.0059,-0.012 0.0094,-0.0305 0,-0.0399 -0.0094,-0.0101 -0.03052,0.0101 -0.03992,0 -0.01266,-0.0127 -0.112157,-0.21672 -0.119765,-0.23952 -0.0041,-0.0127 0.0041,-0.0273 0,-0.0399 -0.01882,-0.0565 -0.06541,-0.10199 -0.07985,-0.15969 -0.0065,-0.0258 0.0084,-0.0546 0,-0.0798 -0.0059,-0.0178 -0.03152,-0.0231 -0.03992,-0.0399 -0.0059,-0.012 0.0041,-0.0273 0,-0.0399 -0.0094,-0.0283 -0.03051,-0.0517 -0.03992,-0.0798 -0.01262,-0.0379 0.0078,-0.0807 0,-0.11977 -0.0083,-0.0412 -0.03167,-0.0786 -0.03992,-0.11975 -0.0053,-0.0261 0.0065,-0.054 0,-0.0798 -0.0072,-0.0289 -0.03051,-0.0517 -0.03992,-0.0798 -0.0041,-0.0127 0.0041,-0.0272 0,-0.0399 -0.0094,-0.0282 -0.03409,-0.0507 -0.03992,-0.0798 -0.0078,-0.0392 0.0078,-0.0807 0,-0.11977 -0.0058,-0.0291 -0.03409,-0.0507 -0.03992,-0.0798 -0.01566,-0.0782 0.01312,-0.16077 0,-0.23953 -0.0069,-0.0415 -0.033,-0.0782 -0.03992,-0.11975 -0.0066,-0.0394 0,-0.0798 0,-0.11977 v -0.23953 -0.31937 c 0,-0.0666 -0.0059,-0.13335 0,-0.19962 0.0073,-0.0807 0.02661,-0.15968 0.03992,-0.23953 0.03559,-0.21356 0.07277,-0.42728 0.119764,-0.63874 0.01195,-0.0536 0.03311,-0.10524 0.03992,-0.15968 0.0066,-0.0528 -0.0058,-0.10681 0,-0.15969 0.0075,-0.0674 0.03152,-0.13227 0.03992,-0.1996 0.0049,-0.0396 -0.0056,-0.0802 0,-0.11977 0.0077,-0.0544 0.03216,-0.10535 0.03992,-0.15968 0.0056,-0.0396 -0.0078,-0.0807 0,-0.11978 0.01171,-0.0583 0.06541,-0.10198 0.07984,-0.15968 0.0129,-0.0517 -0.0087,-0.10714 0,-0.15969 0.009,-0.0541 0.03216,-0.10535 0.03992,-0.15968 0.0056,-0.0396 0,-0.0798 0,-0.11977 v -0.31937 -0.51897 c 0,-0.0606 -0.009,-0.26577 0,-0.31937 0.0069,-0.0415 0.03301,-0.0782 0.03992,-0.11978 0.0066,-0.0395 -0.0066,-0.0805 0,-0.11976 0.0069,-0.0415 0.033,-0.0782 0.03992,-0.11976 0.0066,-0.0393 -0.0078,-0.0807 0,-0.11976 0.0058,-0.0291 0.02661,-0.0533 0.03992,-0.0798 0.01331,-0.0267 0.02662,-0.0534 0.03992,-0.0798 0.01331,-0.0267 0.02887,-0.0522 0.03992,-0.0798 0.01563,-0.0391 0.01827,-0.0836 0.03992,-0.11976 0.01937,-0.0323 0.05726,-0.0498 0.07984,-0.0798 0.01785,-0.0238 0.02207,-0.056 0.03992,-0.0798 0.02258,-0.0301 0.05322,-0.0532 0.07985,-0.0798 0.07985,-0.0798 0.159685,-0.15969 0.239529,-0.23954 0.106457,-0.10647 0.212913,-0.21292 0.319372,-0.31937 0.02662,-0.0267 0.05045,-0.0563 0.07985,-0.0798 0.03747,-0.03 0.08291,-0.0491 0.119765,-0.0798 0.284491,-0.2845 -0.03837,0.0227 0.239528,-0.1996 0.02938,-0.0235 0.04853,-0.0591 0.07985,-0.0798 0.04951,-0.033 0.108015,-0.0503 0.159686,-0.0798 0.008,-0.004 0.237187,-0.15891 0.239529,-0.15968 0.03787,-0.0127 0.08039,0.006 0.119764,0 0.04151,-0.007 0.0793,-0.0284 0.119764,-0.0399 0.05275,-0.015 0.107634,-0.0226 0.159686,-0.0399 0.02822,-0.0101 0.05067,-0.0341 0.07985,-0.0399 0.304546,0 -0.03149,0.0178 0.199608,-0.0399 0.02582,-0.006 0.05322,0 0.07984,0 h 0.07985 0.439136 0.359293 c 0.03992,0 0.08063,-0.008 0.119765,0 0.02918,0.006 0.05221,0.0289 0.07985,0.0399 0.03907,0.0157 0.08069,0.0243 0.119764,0.0399 0.02763,0.0112 0.05098,0.0327 0.07985,0.0399 0.02582,0.006 0.05375,-0.004 0.07985,0 0.08252,0.0165 0.158605,0.0567 0.23953,0.0798 0.07505,0.0214 0.172161,0.0292 0.239528,0.0798 0.06023,0.0452 0.100898,0.11268 0.159687,0.15969 0.03747,0.03 0.08584,0.0458 0.119763,0.0798 0.03392,0.034 0.04986,0.0824 0.07985,0.11977 0.02351,0.0294 0.05322,0.0533 0.07985,0.0798 0.03992,0.0267 0.08904,0.043 0.119765,0.0798 0.03809,0.0457 0.03776,0.11757 0.07985,0.15968 0.04208,0.042 0.117606,0.0378 0.159687,0.0798 0.04208,0.042 0.04174,0.114 0.07984,0.15968 0.03071,0.0368 0.08979,0.0424 0.119765,0.0798 0.02629,0.0328 0.0211,0.082 0.03992,0.11976 0.02146,0.0429 0.04986,0.0824 0.07985,0.11976 0.12223,0.15279 0.0293,0.022 0.159686,0.11977 0.04517,0.0339 0.07985,0.0798 0.119765,0.11976 0.07985,0.0798 0.159685,0.15969 0.239528,0.23953 0.06654,0.0666 0.133072,0.13308 0.199608,0.19961 0.02661,0.0267 0.05726,0.0498 0.07985,0.0798 0.01785,0.0238 0.02662,0.0531 0.03992,0.0798 0.02662,0.0532 0.06102,0.10322 0.07985,0.1597 0.0084,0.0252 -0.0053,0.0538 0,0.0798 0.0083,0.0412 0.02662,0.0798 0.03992,0.11976 0.01331,0.0399 0.02662,0.0798 0.03992,0.11976 0.01331,0.0399 0.03301,0.0782 0.03992,0.11977 0.01532,0.0919 -0.01031,0.18687 0,0.27945 0.0075,0.0674 0.03317,0.13209 0.03992,0.1996 0.0066,0.0662 -0.0073,0.13348 0,0.1996 0.04125,0.3713 0.02937,-0.0233 0.07985,0.27946 0.01532,0.0919 -0.0093,0.18676 0,0.27945 -0.01409,0.14088 0.06301,0.26455 0.07985,0.39922 0.0066,0.0528 0,0.10647 0,0.15969 v 0.1996 0.11977 c 0,0.0399 0.0066,0.0805 0,0.11976 -0.02878,0.17271 -0.05106,0.0668 -0.07985,0.23952 -0.0066,0.0394 0.0066,0.0805 0,0.11978 0.01386,0.0813 -0.0658,0.12934 -0.07985,0.1996 -0.0078,0.0392 0.0066,0.0805 0,0.11977 -0.0069,0.0415 -0.033,0.0782 -0.03992,0.11977 -0.01314,0.0788 0.01313,0.16077 0,0.23952 -0.0069,0.0415 -0.033,0.0782 -0.03992,0.11976 -0.0066,0.0394 0,0.0798 0,0.11977 v 0.31937 0.23953 c 0,0.0267 0.01195,0.056 0,0.0798 -0.0059,0.012 -0.03397,-0.012 -0.03992,0 -0.01227,0.0245 0.01274,0.17414 0,0.1996 -0.0084,0.0168 -0.02661,0.0267 -0.03992,0.0399 0,0.0399 0.0078,0.0807 0,0.11977 -0.01171,0.0583 -0.06542,0.10198 -0.07985,0.15968 -0.0065,0.0258 0.0065,0.054 0,0.0798 -0.0072,0.0289 -0.02887,0.0522 -0.03992,0.0798 -0.01563,0.0391 -0.0243,0.0807 -0.03992,0.11976 -0.01098,0.0276 -0.0327,0.051 -0.03992,0.0798 -0.0065,0.0258 0.0065,0.054 0,0.0798 0.02406,0.0723 -0.06466,0.0742 -0.07985,0.11975 -0.0084,0.0252 0.0065,0.054 0,0.0798 -0.01563,0.0625 -0.107926,0.18037 -0.119765,0.23952 -0.0078,0.0392 0.01483,0.0827 0,0.11978 -0.01398,0.0349 -0.05897,0.0485 -0.07984,0.0798 -0.0074,0.0112 0.0041,0.0272 0,0.0399 -0.0094,0.0282 -0.02887,0.0522 -0.03992,0.0798 -0.01563,0.0391 -0.0243,0.0807 -0.03992,0.11978 -0.01098,0.0276 -0.03052,0.0517 -0.03992,0.0798 -0.0041,0.0127 0.0041,0.0272 0,0.0399 -0.01882,0.0564 -0.06102,0.10322 -0.07985,0.1597 -0.0041,0.0127 0.0059,0.0281 0,0.0399 -0.02123,0.0424 -0.05861,0.0374 -0.07985,0.0798 -0.0059,0.012 0.0059,0.0279 0,0.0399 -0.0084,0.0168 -0.02948,0.0243 -0.03992,0.0399 -0.0165,0.0248 -0.01888,0.0588 -0.03992,0.0798 -0.0094,0.0101 -0.03397,-0.012 -0.03992,0 -0.01195,0.0238 0.01195,0.056 0,0.0798 -0.0059,0.012 -0.02802,-0.006 -0.03992,0 -0.01683,0.008 0.01572,0.0845 -0.0011,0.0929 -0.01195,0.006 -0.06683,-0.0589 -0.07873,-0.0529 -0.01683,0.008 -0.02309,0.0315 -0.03992,0.0399 -0.01215,0.006 -0.06297,0.0529 -0.08095,0.0529"
       id="path3717"
       inkscape:connector-curvature="0"
       sodipodi:nodetypes="ccccccccccccccccccccccccsccsccccccccccccccccccscsccccccccccccccccccccccccsccscsccccccccccccscscccccccccccccccccccccccccsccscccccccccccccccccccccccccccccccccccscsccccccccscscccccccccccccccccccccccccccccccccc" />
    <path
       style="fill:#efe7b8;fill-opacity:1;stroke:#efe7b8;stroke-width:0.31616211;stroke-linecap:round;stroke-linejoin:miter;stroke-miterlimit:4;stroke-dasharray:none;stroke-opacity:1"
       d="m 16.428156,284.24387 c 0,0.0462 0,0.0922 0,0.13831 0,0.0131 0.0026,0.0267 0,0.0396 0.0046,0.0397 -0.03091,0.0644 -0.03952,0.0989 -0.0033,0.0128 0,0.0263 0,0.0396 -0.0066,0.0263 -0.01229,0.0529 -0.01976,0.079 -0.0057,0.0201 -0.01203,0.0399 -0.01977,0.0593 -0.0055,0.0136 -0.01619,0.0252 -0.01976,0.0396 -0.0074,0.0295 0.0062,0.0872 0,0.11854 -0.004,0.0204 -0.01634,0.0387 -0.01977,0.0593 -0.0065,0.039 0.0065,0.0796 0,0.11854 -0.0035,0.0205 -0.01634,0.0388 -0.01977,0.0593 -0.0033,0.0195 0,0.0396 0,0.0593 0,0.0263 0,0.0527 0,0.079 0,0.0593 0,0.11854 0,0.17785 0,0.0197 0,0.0396 0,0.0593 0,0.0197 0.0033,0.0398 0,0.0593 -0.0035,0.0205 -0.01568,0.0388 -0.01976,0.0593 -0.0026,0.0129 0,0.0263 0,0.0396 0,0.0263 0,0.0527 0,0.079 0,0.0131 0.0033,0.0268 0,0.0396 -0.0036,0.0143 -0.01619,0.0252 -0.01977,0.0396 -0.0032,0.0128 0.0026,0.0267 0,0.0396 -0.004,0.0204 -0.01568,0.0388 -0.01976,0.0593 -0.0052,0.0258 0.0064,0.0536 0,0.079 -0.0036,0.0143 -0.01619,0.0252 -0.01977,0.0396 -0.008,0.0319 0.0054,0.0663 0,0.0988 -0.0035,0.0205 -0.01634,0.0387 -0.01977,0.0593 -0.0032,0.0195 0.0033,0.0398 0,0.0593 -0.0035,0.0205 -0.01633,0.0388 -0.01976,0.0593 -0.0044,0.0266 0,0.12811 0,0.15808 0,0.0856 0,0.17126 0,0.25688 0,0.0922 0,0.18444 0,0.27665 0,0.0329 -0.0036,0.0661 0,0.0988 0.003,0.027 0.01318,0.0527 0.01976,0.079 0,0.0396 -0.0039,0.0792 0,0.11854 0.0077,0.0782 0.0242,0.0694 0.03952,0.13833 0.0087,0.0391 0.01613,0.0787 0.01977,0.11853 0.0066,0.0722 -0.0066,0.14519 0,0.21736 0.008,0.0884 0.01894,0.0861 0.03952,0.15809 0.0074,0.0261 0.01229,0.0529 0.01976,0.079 0.0057,0.0201 0.01568,0.0389 0.01977,0.0593 0.0026,0.0129 0,0.0263 0,0.0396 0,0.0263 0,0.0527 0,0.079 0,0.0131 -0.0026,0.0267 0,0.0396 0.004,0.0204 0.01568,0.0388 0.01976,0.0593 0.0026,0.0129 0,0.0265 0,0.0396 0,0.0197 0,0.0396 0,0.0593 0,0.079 0,0.15808 0,0.23712 0,0.0462 -0.0052,0.0925 0,0.13832 0.0037,0.0334 0.01159,0.0662 0.01976,0.0988 0.01877,0.0751 0.0272,0.0521 0.03952,0.13832 0.0028,0.0196 -0.0033,0.0398 0,0.0593 0.0035,0.0205 0.01318,0.0396 0.01976,0.0593 0.01318,0.0396 0.02942,0.0781 0.03952,0.11854 0.0016,0.006 0,0.0131 0,0.0197 0,0.0131 -0.0033,0.0268 0,0.0396 0.0036,0.0143 0.01429,0.0258 0.01977,0.0396 0.0077,0.0194 0.01202,0.0399 0.01977,0.0593 0.0055,0.0137 0.01687,0.0251 0.01976,0.0396 0.0077,0.0387 -0.0065,0.0796 0,0.11854 0.0068,0.0411 0.02809,0.0785 0.03952,0.11854 0.0074,0.026 0.0087,0.0542 0.01977,0.079 0.01561,0.0351 0.04338,0.0638 0.05929,0.0989 0.01722,0.0379 0.02635,0.079 0.03952,0.11854 0.0066,0.0197 0.0083,0.0419 0.01977,0.0593 0.0155,0.0233 0.04305,0.0365 0.05929,0.0593 0.01713,0.024 0.0249,0.0535 0.03952,0.079 0.02357,0.0412 0.0527,0.079 0.07904,0.11854 0.01318,0.0197 0.02469,0.0408 0.03952,0.0593 0.01159,0.0146 0.03119,0.0229 0.03952,0.0396 0.0058,0.012 -0.0033,0.0268 0,0.0396 0.0036,0.0143 0.01429,0.0258 0.01977,0.0396 0.0077,0.0194 0.01042,0.0406 0.01977,0.0593 0.0041,0.008 0.01318,0.0131 0.01976,0.0197 0.01318,0.0131 0.02993,0.0235 0.03952,0.0396 0.05112,0.0852 -0.01774,0.0372 0.05927,0.0988 0.01855,0.0148 0.03952,0.0263 0.05929,0.0396 0.01976,0.0131 0.03804,0.0289 0.05928,0.0396 0.05533,0.0277 0.122513,0.0317 0.177843,0.0593 0.0084,0.003 0.01148,0.0156 0.01976,0.0197 0.01581,0.008 0.04347,-0.008 0.05929,0 0.0084,0.003 0.01148,0.0157 0.01977,0.0197 0.0058,0.002 0.01511,-0.004 0.01977,0 0.0047,0.004 -0.0047,0.015 0,0.0197 0.04992,0.05 0.02277,0.007 0.05928,0.0197 0.01396,0.004 0.02524,0.0162 0.03952,0.0197 0.0095,0.002 0.127145,0.002 0.138321,0 0.02042,-0.003 0.03874,-0.0164 0.05927,-0.0197 0.01949,-0.003 0.0398,0.003 0.05929,0 0.0411,-0.007 0.07815,-0.0294 0.118562,-0.0396 0.155283,-0.0389 0.04436,-0.006 0.217362,-0.0197 0.04643,-0.003 0.09188,-0.0161 0.138321,-0.0197 0.03939,-0.003 0.07903,0 0.118562,0 0.03952,0 0.07916,-0.003 0.118564,0 0.04643,0.003 0.09228,0.0127 0.13832,0.0197 0.189239,0.0291 0.0478,0.008 0.217362,0.0396 0.03941,0.007 0.07915,0.0126 0.118562,0.0197 0.03304,0.006 0.06535,0.0167 0.0988,0.0197 0.03936,0.003 0.07905,0 0.118563,0 0.0461,0 0.09221,0 0.13832,0 0.05929,0 0.118562,0 0.177841,0 0.01365,0 0.07304,0.003 0.07905,0 0.0084,-0.003 0.01318,-0.0131 0.01977,-0.0197 0.0066,-0.007 0.01559,-0.012 0.01976,-0.0197 0.003,-0.006 -0.003,-0.0139 0,-0.0197 0.0041,-0.008 0.01318,-0.0131 0.01977,-0.0197 0.01159,-0.012 0.07447,-0.0699 0.07903,-0.079 0.003,-0.006 -0.003,-0.0139 0,-0.0197 0.0084,-0.0166 0.03119,-0.0229 0.03952,-0.0396 0.003,-0.006 -0.0037,-0.0144 0,-0.0197 0.01031,-0.0156 0.03119,-0.0229 0.03952,-0.0396 0.0058,-0.012 -0.0058,-0.0277 0,-0.0396 0.01977,-0.0396 0.03952,-0.0296 0.05929,-0.0593 0.0025,-0.003 0.03825,-0.0778 0.03952,-0.079 0.01042,-0.0112 0.02911,-0.0101 0.03952,-0.0197 0.01042,-0.0112 0.01159,-0.0272 0.01977,-0.0396 0.0377,-0.0565 0.0037,0.0303 0.03952,-0.0593 0.0077,-0.0194 0.0091,-0.0415 0.01977,-0.0593 0.0095,-0.016 0.02834,-0.0247 0.03952,-0.0396 0.0212,-0.0284 0.02623,-0.0678 0.03952,-0.0989 0.01159,-0.027 0.03143,-0.0507 0.03952,-0.079 0.0054,-0.019 -0.0038,-0.0399 0,-0.0593 0.0058,-0.0292 0.05155,-0.0875 0.05928,-0.11854 0.0032,-0.0128 -0.0033,-0.0268 0,-0.0396 -0.01195,-0.0358 0.03202,-0.0368 0.03952,-0.0593 0.0041,-0.0125 -0.0033,-0.0268 0,-0.0396 0.02385,-0.0955 0.0094,9.9e-4 0.03952,-0.0593 0.003,-0.006 -0.0047,-0.015 0,-0.0197 0.01679,-0.0168 0.04074,-0.0248 0.05927,-0.0396 0.0447,-0.0358 0.06037,-0.0724 0.0988,-0.11854 0.04157,-0.0499 0.09674,-0.0884 0.13832,-0.13832 0.0152,-0.0183 0.02571,-0.0399 0.03952,-0.0593 0.01914,-0.0268 0.0382,-0.0538 0.05929,-0.079 0.01789,-0.0215 0.04379,-0.036 0.05927,-0.0593 0.0082,-0.0123 0.0093,-0.0291 0.01977,-0.0396 0.0047,-0.004 0.01511,0.004 0.01977,0 0.0047,-0.004 -0.0047,-0.015 0,-0.0197 0.0047,-0.004 0.01511,0.004 0.01977,0 0.0047,-0.004 -0.003,-0.0139 0,-0.0197 0.0041,-0.008 0.01318,-0.0131 0.01976,-0.0197 0.01714,-0.0173 0.07066,-0.0651 0.07903,-0.079 0.01076,-0.0178 0.0091,-0.0415 0.01977,-0.0593 0.0095,-0.016 0.02834,-0.0247 0.03952,-0.0396 0.0089,-0.012 0.01087,-0.0277 0.01976,-0.0396 0.01123,-0.0149 0.02918,-0.024 0.03952,-0.0396 0.0037,-0.006 -0.003,-0.0139 0,-0.0197 0.0041,-0.008 0.01318,-0.0131 0.01976,-0.0197 0,-0.0131 -0.0041,-0.027 0,-0.0396 0.003,-0.008 0.01459,-0.0121 0.01976,-0.0197 0.0082,-0.0123 0.01318,-0.0264 0.01977,-0.0396 0.0066,-0.0131 0.01687,-0.0251 0.01976,-0.0396 0.0038,-0.0194 -0.0038,-0.0399 0,-0.0593 0.0029,-0.0145 0.01318,-0.0263 0.01977,-0.0396 0.01612,-0.0323 0.03341,-0.0622 0.03952,-0.0988 0.0032,-0.0195 -0.0028,-0.0397 0,-0.0593 0.0038,-0.0269 0.01387,-0.0526 0.01976,-0.0791 0.0073,-0.0327 0.01159,-0.0662 0.01977,-0.0989 0.01641,-0.0656 0.03028,-0.0644 0.03952,-0.13831 0.0032,-0.0261 -0.0029,-0.0528 0,-0.079 0.02621,-0.23597 0.01977,0.0377 0.01977,-0.19759 0,-0.0462 0,-0.0922 0,-0.13833 0,-0.0265 -0.0037,-0.0529 0,-0.079 0.003,-0.0206 0.01568,-0.0388 0.01977,-0.0593 0.0026,-0.0129 0,-0.0263 0,-0.0396 0.0066,-0.0197 0.01568,-0.0389 0.01976,-0.0593 0.0026,-0.0129 -0.0032,-0.0268 0,-0.0396 0.0036,-0.0143 0.01688,-0.0251 0.01976,-0.0396 0.0065,-0.0323 0,-0.0659 0,-0.0989 0,-0.0855 0,-0.17124 0,-0.25688 0,-0.0396 0,-0.079 0,-0.11854 0,-0.067 0.0052,-0.1114 -0.01976,-0.17783 -0.0084,-0.0222 -0.02774,-0.0388 -0.03952,-0.0593 -0.02923,-0.0511 -0.04782,-0.10815 -0.07905,-0.15808 -0.169264,-0.27082 0.0431,0.0881 -0.118562,-0.1383 -0.01712,-0.024 -0.0224,-0.0551 -0.03952,-0.079 -0.01624,-0.0228 -0.04305,-0.0365 -0.05929,-0.0593 -0.01712,-0.024 -0.02065,-0.0564 -0.03952,-0.079 -0.0152,-0.0183 -0.0425,-0.0226 -0.05929,-0.0396 -0.21011,-0.2101 0.117977,0.0549 -0.158081,-0.13831 -0.0709,10e-4 -0.115372,-0.12392 -0.158082,-0.15808 -0.411854,-0.23535 0.04545,0.0503 -0.1976,-0.15809 -0.02237,-0.0193 -0.05507,-0.0224 -0.07905,-0.0396 -0.02274,-0.0162 -0.03655,-0.043 -0.05929,-0.0593 -0.02397,-0.017 -0.05667,-0.0203 -0.07904,-0.0396 -0.02501,-0.0214 -0.036,-0.0558 -0.05927,-0.079 -0.05436,-0.0543 -0.15553,-0.11687 -0.217361,-0.15807 -0.07905,-0.0527 -0.158081,-0.10535 -0.237121,-0.15809 -0.07905,-0.0527 -0.15698,-0.10703 -0.237123,-0.15808 -0.03241,-0.0206 -0.0664,-0.0387 -0.09879,-0.0593 -0.04008,-0.0254 -0.07754,-0.055 -0.118563,-0.0791 -0.03817,-0.0222 -0.07905,-0.0396 -0.118562,-0.0593 -0.03952,-0.0197 -0.07818,-0.0414 -0.118562,-0.0593 -0.01904,-0.008 -0.04013,-0.012 -0.05927,-0.0197 -0.05415,-0.0232 -0.103936,-0.0558 -0.158081,-0.079 -0.07418,-0.0318 -0.158789,-0.0436 -0.237122,-0.0593 -0.06587,-0.0131 -0.132029,-0.025 -0.197601,-0.0396 -0.05302,-0.012 -0.104182,-0.0327 -0.158081,-0.0396 -0.04576,-0.006 -0.09221,0 -0.138321,0 -0.111982,0 -0.223947,0 -0.335922,0 -0.06586,0 -0.131735,0 -0.197602,0 -0.01318,0 -0.02635,0 -0.03952,0 -0.01318,0 -0.02702,-0.003 -0.03952,0 -0.0089,0.002 -0.01148,0.0157 -0.01977,0.0197 -0.0053,0.002 -0.109629,0 -0.118562,0 -0.03294,0 -0.06587,0 -0.0988,0 -0.01976,0 -0.04011,0.004 -0.05927,0 -0.0091,-0.002 -0.01148,-0.0156 -0.01977,-0.0197 -0.0058,-0.002 -0.01318,0 -0.01976,0 -0.0084,0 -0.112683,0.002 -0.118562,0 -0.0084,-0.003 -0.01148,-0.0157 -0.01977,-0.0197 -0.0058,-0.002 -0.01387,0.002 -0.01976,0 -0.01054,-0.004 -0.04887,-0.0489 -0.05929,-0.0593 -0.03952,-0.0396 -0.07905,-0.079 -0.118562,-0.11854 -0.0066,-0.007 -0.01318,-0.0131 -0.01976,-0.0197 -0.0066,-0.007 -0.01148,-0.0157 -0.01977,-0.0197 -0.0058,-0.002 -0.01511,0.004 -0.01977,0 -0.04088,-0.0409 0.06247,0.001 -0.01976,-0.0396 -0.0072,-0.003 -0.08505,0 -0.0988,0 -0.0066,0 -0.01511,-0.004 -0.01977,0 -0.0047,0.004 0.003,0.0139 0,0.0197 -0.04112,0.0823 0.0013,-0.0212 -0.03952,0.0197 -0.0047,0.004 0.0047,0.015 0,0.0197 -0.0047,0.004 -0.01511,-0.004 -0.01976,0 -0.0047,0.004 0.0047,0.015 0,0.0197 -0.0047,0.004 -0.01511,-0.004 -0.01977,0 -0.0026,0.002 0,0.0974 0,0.0396"
       id="path4674"
       inkscape:connector-curvature="0" />
    <path
       style="fill:#c2af6d;fill-opacity:1;stroke:#c2af6d;stroke-width:0.31616211px;stroke-linecap:round;stroke-linejoin:miter;stroke-opacity:1;paint-order:stroke fill markers"
       d="m 19.392175,287.08932 c -0.03294,-0.0197 -0.06684,-0.038 -0.0988,-0.0593 -0.0077,-0.004 -0.01317,-0.0131 -0.01977,-0.0197 -0.01977,-0.0197 -0.03952,-0.0396 -0.05929,-0.0593 -0.0527,-0.0527 -0.105382,-0.10535 -0.15808,-0.15808 -0.01977,-0.0197 -0.03952,-0.0396 -0.05929,-0.0593 -0.01318,-0.0131 -0.02461,-0.0283 -0.03952,-0.0396 -0.05052,-0.0379 -0.08071,-0.004 -0.13832,-0.0396 -0.01598,-0.0101 -0.02286,-0.0312 -0.03952,-0.0396 -0.01183,-0.006 -0.02674,0.003 -0.03952,0 -0.01429,-0.003 -0.02635,-0.0131 -0.03952,-0.0197 -0.01318,-0.007 -0.02635,-0.0131 -0.03952,-0.0197 -0.01318,-0.007 -0.02524,-0.0163 -0.03952,-0.0197 -0.01916,-0.004 -0.04054,0.006 -0.05929,0 -0.07905,-0.0263 0.0039,-0.0191 -0.0988,-0.0396 -0.01292,-0.002 -0.02674,0.003 -0.03952,0 -0.03093,-0.007 -0.08929,-0.0534 -0.118563,-0.0593 -0.03875,-0.007 -0.07981,0.007 -0.118562,0 -0.01445,-0.002 -0.02508,-0.0168 -0.03952,-0.0197 -0.01938,-0.003 -0.03952,0 -0.05929,0 -0.01976,0 -0.03952,0 -0.05928,0 -0.02635,0 -0.0527,0 -0.07904,0 -0.02635,0 -0.05295,-0.003 -0.07904,0 -0.02062,0.002 -0.03886,0.0157 -0.05929,0.0197 -0.105572,0.0212 0.04447,-0.0375 -0.0988,0.0197 -0.01367,0.006 -0.02524,0.0161 -0.03952,0.0197 -0.01278,0.003 -0.02674,-0.003 -0.03952,0 -0.09542,0.0239 9.8e-4,0.0101 -0.05929,0.0396 -0.02726,0.0137 -0.01767,-0.0239 -0.03952,0.0197 -0.003,0.006 0.0047,0.015 0,0.0197 -0.0047,0.004 -0.01511,-0.004 -0.01977,0 -0.0047,0.004 0.003,0.0139 0,0.0197 -0.0084,0.0167 -0.03362,0.0219 -0.03952,0.0396 -0.0041,0.0126 0.0026,0.0267 0,0.0396 -0.01135,0.0568 -0.04977,0.10097 -0.05929,0.15807 -0.0032,0.0195 0.0033,0.0398 0,0.0593 -0.0068,0.0411 -0.03267,0.0774 -0.03952,0.11854 -0.0024,0.0145 -0.0024,0.16337 0,0.17783 0.0035,0.0205 0.01634,0.0388 0.01977,0.0593 0.01386,0.0832 -0.02086,0.0373 0.01977,0.11854 0.03886,0.0777 0.04272,0.0358 0.05929,0.11854 0.0026,0.0129 -0.0033,0.0268 0,0.0396 0.0036,0.0143 0.01429,0.0258 0.01976,0.0396 0.0077,0.0194 0.01202,0.0399 0.01976,0.0593 0.0055,0.0137 0.01688,0.0251 0.01977,0.0396 0.0038,0.0194 -0.0062,0.0405 0,0.0593 0.0075,0.0226 0.02774,0.0387 0.03952,0.0593 0.01461,0.0256 0.02918,0.0516 0.03952,0.0791 0.11242,0.2998 -0.05601,-0.10053 0.03952,0.13832 0.01098,0.0273 0.03237,0.0504 0.03952,0.079 0.03519,0.14075 -0.0598,-0.10019 0.01977,0.0989 0.01098,0.0273 0.0302,0.0511 0.03952,0.079 0.01961,0.0588 -0.04679,-0.0405 0.01977,0.0593 0.01031,0.0156 0.02918,0.024 0.03952,0.0396 0.0081,0.0122 0.01159,0.0272 0.01977,0.0396 0.0052,0.007 0.01318,0.0131 0.01977,0.0197 0.0066,0.007 0.0123,0.0142 0.01976,0.0197 0.019,0.0142 0.0425,0.0227 0.05929,0.0396 0.05285,0.0528 0.02037,0.0596 0.07904,0.0988 0.02451,0.0164 0.05507,0.0224 0.07904,0.0396 0.176064,0.12577 -0.07326,-0.008 0.138322,0.11854 0.03789,0.0228 0.07994,0.0378 0.118562,0.0593 0.02076,0.012 0.03804,0.0289 0.05927,0.0396 0.03173,0.0159 0.06707,0.0236 0.0988,0.0396 0.02124,0.0112 0.03892,0.0272 0.05929,0.0396 0.01263,0.007 0.02689,0.0122 0.03952,0.0197 0.02036,0.0122 0.03865,0.0277 0.05927,0.0396 0.139373,0.0796 0.02233,10e-4 0.217362,0.079 0.0547,0.0218 0.103386,0.0571 0.158082,0.079 0.06871,0.0274 0.181371,0.0509 0.256881,0.0593 0.03788,0.004 0.08008,0 0.118562,0 0.0066,0 0.01511,0.004 0.01977,0 0.03441,-0.0344 0.01195,-0.0399 0.01977,-0.079 0.004,-0.0204 0.01318,-0.0396 0.01977,-0.0593 0.0066,-0.0197 0.01318,-0.0396 0.01976,-0.0593 0.0066,-0.0197 0.01634,-0.0387 0.01977,-0.0593 0.0033,-0.0195 -0.0033,-0.0398 0,-0.0593 0.0035,-0.0205 0.01318,-0.0396 0.01977,-0.0593 0.0066,-0.0197 0.01202,-0.0399 0.01976,-0.0593 0.0055,-0.0137 0.01688,-0.0251 0.01977,-0.0396 0.0038,-0.0194 0,-0.0396 0,-0.0593 0,-0.0593 0,-0.11854 0,-0.17785 0,-0.18443 0,-0.36885 0,-0.55328 0,-0.0724 0,-0.14491 0,-0.21736 0,-0.0329 0,-0.0658 0,-0.0988 0,-0.007 0,-0.0131 0,-0.0197 0,-0.007 0.003,-0.0139 0,-0.0197 -0.0041,-0.008 -0.01459,-0.012 -0.01977,-0.0197 -0.01633,-0.0245 -0.02319,-0.0545 -0.03952,-0.079 -0.0052,-0.007 -0.01681,-0.0112 -0.01977,-0.0197 -0.0041,-0.0126 0.0032,-0.0268 0,-0.0396 -0.0036,-0.0143 -0.01318,-0.0263 -0.01977,-0.0396 -0.01318,-0.0265 -0.0302,-0.0511 -0.03952,-0.0791 -0.002,-0.006 0.003,-0.0139 0,-0.0197 -0.0041,-0.008 -0.01559,-0.012 -0.01976,-0.0197 -0.0039,-0.008 0.004,-0.0553 0,-0.0593 -0.0047,-0.004 -0.01511,0.004 -0.01977,0 -0.0047,-0.004 0,-0.0131 0,-0.0197 0,-0.0263 0,-0.0527 0,-0.079 z"
       id="path4676"
       inkscape:connector-curvature="0" />
    <path
       style="fill:none;stroke:#000000;stroke-width:0.31616211px;stroke-linecap:butt;stroke-linejoin:miter;stroke-opacity:1"
       d="M 4.0173705,282.6273 C 3.2987837,278.51539 3.2987837,278.51539 3.2987837,278.51539"
       id="path3719"
       inkscape:connector-curvature="0" />
    <path
       inkscape:connector-curvature="0"
       id="path3733"
       d="M 4.0173705,282.6273 C 3.2987837,278.51539 3.2987837,278.51539 3.2987837,278.51539"
       style="fill:none;stroke:url(#linearGradient4606);stroke-width:0.31616211px;stroke-linecap:butt;stroke-linejoin:miter;stroke-opacity:1" />
    <path
       style="fill:none;stroke:#ff0000;stroke-width:0.396875;stroke-linecap:butt;stroke-linejoin:miter;stroke-miterlimit:4;stroke-dasharray:1.5875,1.5875;stroke-dashoffset:0;stroke-opacity:1"
       d="m 4.0173705,282.6273 c 0,0 2.6879814,-1.427 7.7088235,0.40053 5.020841,1.82754 7.636999,5.54615 7.636999,5.54615"
       id="path3745"
       inkscape:connector-curvature="0"
       sodipodi:nodetypes="czc" />
    <path
       style="fill:none;stroke:#000000;stroke-width:0.31616211px;stroke-linecap:butt;stroke-linejoin:miter;stroke-opacity:1"
       d="m 19.363193,288.57398 c -0.718587,-4.11192 -0.718587,-4.11192 -0.718587,-4.11192"
       id="path3719-6"
       inkscape:connector-curvature="0" />
    <path
       inkscape:connector-curvature="0"
       id="path3733-6"
       d="m 19.363193,288.57398 c -0.718587,-4.11192 -0.718587,-4.11192 -0.718587,-4.11192"
       style="fill:none;stroke:url(#linearGradient4606-5);stroke-width:0.31616211px;stroke-linecap:butt;stroke-linejoin:miter;stroke-opacity:1" />
    <ellipse
       style="fill:url(#radialGradient4598-0);fill-opacity:1;stroke:#000000;stroke-width:0.09548096;stroke-miterlimit:4;stroke-dasharray:none;stroke-opacity:0.42929293"
       ry="1.6567421"
       rx="1.6767027"
       cy="283.05896"
       cx="18.459112"
       id="ellipse3735-1" />
    <path
       sodipodi:nodetypes="ccccc"
       inkscape:connector-curvature="0"
       id="path4682"
       d="m 3.3147521,270.94229 -1.716624,25.66951 21.7572139,-1.71662 1.437174,-17.16623 z"
       style="fill:none;fill-opacity:1;stroke:#000000;stroke-width:0.31616211px;stroke-linecap:butt;stroke-linejoin:miter;stroke-opacity:1" />
    <ellipse
       style="fill:url(#radialGradient4598);fill-opacity:1;stroke:#000000;stroke-width:0.09548096;stroke-miterlimit:4;stroke-dasharray:none;stroke-opacity:0.42929293"
       ry="1.6567421"
       rx="1.6767027"
       cy="277.11227"
       cx="3.1132905"
       id="ellipse3735" />
    <g
       id="g4743"
       transform="matrix(-0.55743752,-0.22935188,0.23372363,-0.57626171,-56.290692,441.87876)">
      <path
         style="fill:#000000;fill-opacity:1;stroke:#000000;stroke-width:0.26458332px;stroke-linecap:butt;stroke-linejoin:miter;stroke-opacity:1"
         d="m -10.095938,277.92612 8.4423757,0.0234 c -1.5769979,-0.33386 -2.8561566,-0.52194 -6.383888,-0.49791 -1.0209383,0.007 -1.7450629,-0.0228 -2.0584877,0.47452 z"
         id="path4697"
         inkscape:connector-curvature="0"
         sodipodi:nodetypes="ccsc" />
      <path
         inkscape:connector-curvature="0"
         id="path4699"
         d="m -7.4744791,277.37121 2.2820312,-2.91042 0.7606771,-0.0165 -1.1740885,2.91042 z"
         style="fill:#000000;fill-opacity:1;stroke:#000000;stroke-width:0.26458332px;stroke-linecap:butt;stroke-linejoin:miter;stroke-opacity:1" />
      <path
         inkscape:connector-curvature="0"
         id="path4699-4"
         d="m -3.0226444,278.0415 1.1648092,-1.49649 0.3882702,-0.008 -0.5992862,1.4965 z"
         style="fill:#000000;fill-opacity:1;stroke:#000000;stroke-width:0.13554674px;stroke-linecap:butt;stroke-linejoin:miter;stroke-opacity:1" />
      <path
         style="fill:#000000;fill-opacity:1;stroke:#000000;stroke-width:0.26458332px;stroke-linecap:butt;stroke-linejoin:miter;stroke-opacity:1"
         d="m -10.095938,278.15688 8.4423755,-0.0234 c -1.5769979,0.33386 -2.8561567,0.52194 -6.383888,0.49791 -1.0209383,-0.007 -1.7450629,0.0228 -2.0584875,-0.47452 z"
         id="path4697-1"
         inkscape:connector-curvature="0"
         sodipodi:nodetypes="ccsc" />
      <path
         inkscape:connector-curvature="0"
         id="path4699-5"
         d="m -7.4744794,278.71179 2.2820312,2.91042 0.7606771,0.0165 -1.1740883,-2.91042 z"
         style="fill:#000000;fill-opacity:1;stroke:#000000;stroke-width:0.26458332px;stroke-linecap:butt;stroke-linejoin:miter;stroke-opacity:1" />
      <path
         inkscape:connector-curvature="0"
         id="path4699-4-8"
         d="m -3.0226444,278.0415 1.164809,1.49649 0.3882703,0.008 -0.5992863,-1.4965 z"
         style="fill:#000000;fill-opacity:1;stroke:#000000;stroke-width:0.13554674px;stroke-linecap:butt;stroke-linejoin:miter;stroke-opacity:1" />
    </g>
    <path
       sodipodi:nodetypes="czc"
       inkscape:connector-curvature="0"
       id="path4809"
       d="m 3.7031778,282.4702 c 0,0 5.8861456,-5.13139 7.0820442,-6.2526 1.195899,-1.12121 2.360811,-2.16363 2.360811,-2.16363"
       style="fill:none;stroke:#ff0000;stroke-width:0.39687499;stroke-linecap:butt;stroke-linejoin:miter;stroke-miterlimit:4;stroke-dasharray:1.5875, 1.5875;stroke-dashoffset:0;stroke-opacity:1" />
    <path
       style="fill:none;stroke:#ff0000;stroke-width:0.39687499;stroke-linecap:butt;stroke-linejoin:miter;stroke-miterlimit:4;stroke-dasharray:1.5875, 1.5875;stroke-dashoffset:0;stroke-opacity:1"
       d="m 4.0173705,282.6273 c 0,0 4.3253724,3.38311 6.0797875,5.68324 1.754416,2.30013 3.881373,7.2759 3.881373,7.2759"
       id="path4811"
       inkscape:connector-curvature="0"
       sodipodi:nodetypes="czc"
       inkscape:export-xdpi="192"
       inkscape:export-ydpi="192" />
  </g>
</svg>
